<svg width="375" height="812" viewBox="0 0 375 812" fill="none" xmlns="http://www.w3.org/2000/svg">
<rect width="375" height="812" rx="30" fill="white"/>
<path d="M185.659 99.7594C185.659 99.7594 184.142 89.3567 181.291 84.9397C178.44 80.5227 174.376 77.0219 169.585 74.8569C164.795 72.6919 159.481 71.9548 154.282 72.7338C149.083 73.5129 144.219 75.775 140.273 79.2491C136.327 82.7231 133.467 87.2615 132.036 92.3201C130.605 97.3788 130.664 102.743 132.204 107.769C133.745 112.795 136.703 117.27 140.724 120.658C144.744 124.045 149.656 126.201 154.871 126.867C154.871 126.867 149.609 109.573 160.622 104.014C171.636 98.4545 185.659 99.7594 185.659 99.7594Z" fill="#2488DA"/>
<path d="M221.218 99.9273C221.218 91.7249 217.65 83.8584 211.297 78.0584C204.945 72.2584 196.329 69 187.346 69C178.362 69 169.746 72.2584 163.394 78.0584C157.042 83.8584 153.473 91.7248 153.473 99.9273L187.346 99.9273H221.218Z" fill="#2488DA"/>
<path d="M125 69H187.509V99.7636H131.218C131.218 99.7636 131.545 85.9889 131.218 80.0198C130.891 74.0507 125 69 125 69Z" fill="#2488DA"/>
<path d="M190.341 126.932C190.341 126.932 191.858 137.334 194.709 141.751C197.56 146.168 201.624 149.669 206.415 151.834C211.205 153.999 216.519 154.736 221.718 153.957C226.917 153.178 231.781 150.916 235.727 147.442C239.673 143.968 242.533 139.429 243.964 134.371C245.395 129.312 245.336 123.948 243.796 118.922C242.255 113.896 239.297 109.42 235.276 106.033C231.256 102.646 226.344 100.49 221.129 99.8242C221.129 99.8242 226.391 117.118 215.378 122.677C204.364 128.236 190.341 126.932 190.341 126.932Z" fill="#2488DA"/>
<path d="M154.782 126.764C154.782 134.966 158.35 142.833 164.703 148.633C171.055 154.433 179.671 157.691 188.654 157.691C197.638 157.691 206.254 154.433 212.606 148.633C218.958 142.833 222.527 134.966 222.527 126.764L188.654 126.764H154.782Z" fill="#2488DA"/>
<path d="M251 157.691H188.491V126.927H244.782C244.782 126.927 244.455 140.702 244.782 146.671C245.109 152.64 251 157.691 251 157.691Z" fill="#2488DA"/>
<rect x="44" y="388" width="295" height="48" rx="10" fill="#D85D47" fill-opacity="0.4"/>
<path d="M90.125 418H88.942L84.184 410.785V418H83.001V408.926H84.184L88.942 416.128V408.926H90.125V418ZM95.2486 418.117C94.5813 418.117 93.9746 417.965 93.4286 417.662C92.8913 417.359 92.4666 416.93 92.1546 416.375C91.8513 415.812 91.6996 415.162 91.6996 414.425C91.6996 413.697 91.8556 413.056 92.1676 412.501C92.4883 411.938 92.9216 411.509 93.4676 411.214C94.0136 410.911 94.6246 410.759 95.3006 410.759C95.9766 410.759 96.5876 410.911 97.1336 411.214C97.6796 411.509 98.1086 411.933 98.4206 412.488C98.7413 413.043 98.9016 413.688 98.9016 414.425C98.9016 415.162 98.737 415.812 98.4076 416.375C98.087 416.93 97.6493 417.359 97.0946 417.662C96.54 417.965 95.9246 418.117 95.2486 418.117ZM95.2486 417.077C95.6733 417.077 96.072 416.977 96.4446 416.778C96.8173 416.579 97.1163 416.28 97.3416 415.881C97.5756 415.482 97.6926 414.997 97.6926 414.425C97.6926 413.853 97.58 413.368 97.3546 412.969C97.1293 412.57 96.8346 412.276 96.4706 412.085C96.1066 411.886 95.7123 411.786 95.2876 411.786C94.8543 411.786 94.4556 411.886 94.0916 412.085C93.7363 412.276 93.4503 412.57 93.2336 412.969C93.017 413.368 92.9086 413.853 92.9086 414.425C92.9086 415.006 93.0126 415.495 93.2206 415.894C93.4373 416.293 93.7233 416.592 94.0786 416.791C94.434 416.982 94.824 417.077 95.2486 417.077ZM103.481 414.412C103.481 413.684 103.628 413.047 103.923 412.501C104.218 411.946 104.621 411.517 105.132 411.214C105.652 410.911 106.228 410.759 106.861 410.759C107.485 410.759 108.027 410.893 108.486 411.162C108.945 411.431 109.288 411.769 109.513 412.176V410.876H110.709V418H109.513V416.674C109.279 417.09 108.928 417.437 108.46 417.714C108.001 417.983 107.463 418.117 106.848 418.117C106.215 418.117 105.643 417.961 105.132 417.649C104.621 417.337 104.218 416.899 103.923 416.336C103.628 415.773 103.481 415.131 103.481 414.412ZM109.513 414.425C109.513 413.888 109.405 413.42 109.188 413.021C108.971 412.622 108.677 412.319 108.304 412.111C107.94 411.894 107.537 411.786 107.095 411.786C106.653 411.786 106.25 411.89 105.886 412.098C105.522 412.306 105.232 412.609 105.015 413.008C104.798 413.407 104.69 413.875 104.69 414.412C104.69 414.958 104.798 415.435 105.015 415.842C105.232 416.241 105.522 416.548 105.886 416.765C106.25 416.973 106.653 417.077 107.095 417.077C107.537 417.077 107.94 416.973 108.304 416.765C108.677 416.548 108.971 416.241 109.188 415.842C109.405 415.435 109.513 414.962 109.513 414.425ZM112.266 414.425C112.266 413.688 112.413 413.047 112.708 412.501C113.003 411.946 113.41 411.517 113.93 411.214C114.459 410.911 115.061 410.759 115.737 410.759C116.612 410.759 117.332 410.971 117.895 411.396C118.467 411.821 118.844 412.41 119.026 413.164H117.752C117.631 412.731 117.392 412.388 117.037 412.137C116.69 411.886 116.257 411.76 115.737 411.76C115.061 411.76 114.515 411.994 114.099 412.462C113.683 412.921 113.475 413.576 113.475 414.425C113.475 415.283 113.683 415.946 114.099 416.414C114.515 416.882 115.061 417.116 115.737 417.116C116.257 417.116 116.69 416.995 117.037 416.752C117.384 416.509 117.622 416.163 117.752 415.712H119.026C118.835 416.44 118.454 417.025 117.882 417.467C117.31 417.9 116.595 418.117 115.737 418.117C115.061 418.117 114.459 417.965 113.93 417.662C113.41 417.359 113.003 416.93 112.708 416.375C112.413 415.82 112.266 415.17 112.266 414.425ZM120.163 414.425C120.163 413.688 120.31 413.047 120.605 412.501C120.899 411.946 121.307 411.517 121.827 411.214C122.355 410.911 122.958 410.759 123.634 410.759C124.509 410.759 125.228 410.971 125.792 411.396C126.364 411.821 126.741 412.41 126.923 413.164H125.649C125.527 412.731 125.289 412.388 124.934 412.137C124.587 411.886 124.154 411.76 123.634 411.76C122.958 411.76 122.412 411.994 121.996 412.462C121.58 412.921 121.372 413.576 121.372 414.425C121.372 415.283 121.58 415.946 121.996 416.414C122.412 416.882 122.958 417.116 123.634 417.116C124.154 417.116 124.587 416.995 124.934 416.752C125.28 416.509 125.519 416.163 125.649 415.712H126.923C126.732 416.44 126.351 417.025 125.779 417.467C125.207 417.9 124.492 418.117 123.634 418.117C122.958 418.117 122.355 417.965 121.827 417.662C121.307 417.359 120.899 416.93 120.605 416.375C120.31 415.82 120.163 415.17 120.163 414.425ZM131.608 418.117C130.941 418.117 130.334 417.965 129.788 417.662C129.251 417.359 128.826 416.93 128.514 416.375C128.211 415.812 128.059 415.162 128.059 414.425C128.059 413.697 128.215 413.056 128.527 412.501C128.848 411.938 129.281 411.509 129.827 411.214C130.373 410.911 130.984 410.759 131.66 410.759C132.336 410.759 132.947 410.911 133.493 411.214C134.039 411.509 134.468 411.933 134.78 412.488C135.101 413.043 135.261 413.688 135.261 414.425C135.261 415.162 135.096 415.812 134.767 416.375C134.446 416.93 134.009 417.359 133.454 417.662C132.899 417.965 132.284 418.117 131.608 418.117ZM131.608 417.077C132.033 417.077 132.431 416.977 132.804 416.778C133.177 416.579 133.476 416.28 133.701 415.881C133.935 415.482 134.052 414.997 134.052 414.425C134.052 413.853 133.939 413.368 133.714 412.969C133.489 412.57 133.194 412.276 132.83 412.085C132.466 411.886 132.072 411.786 131.647 411.786C131.214 411.786 130.815 411.886 130.451 412.085C130.096 412.276 129.81 412.57 129.593 412.969C129.376 413.368 129.268 413.853 129.268 414.425C129.268 415.006 129.372 415.495 129.58 415.894C129.797 416.293 130.083 416.592 130.438 416.791C130.793 416.982 131.183 417.077 131.608 417.077ZM143.134 410.876V418H141.951V416.947C141.726 417.311 141.41 417.597 141.002 417.805C140.604 418.004 140.162 418.104 139.676 418.104C139.122 418.104 138.623 417.991 138.181 417.766C137.739 417.532 137.388 417.185 137.128 416.726C136.877 416.267 136.751 415.708 136.751 415.049V410.876H137.921V414.893C137.921 415.595 138.099 416.137 138.454 416.518C138.81 416.891 139.295 417.077 139.91 417.077C140.543 417.077 141.041 416.882 141.405 416.492C141.769 416.102 141.951 415.534 141.951 414.789V410.876H143.134ZM148.603 410.746C149.47 410.746 150.172 411.01 150.709 411.539C151.246 412.059 151.515 412.813 151.515 413.801V418H150.345V413.97C150.345 413.259 150.167 412.718 149.812 412.345C149.457 411.964 148.971 411.773 148.356 411.773C147.732 411.773 147.234 411.968 146.861 412.358C146.497 412.748 146.315 413.316 146.315 414.061V418H145.132V410.876H146.315V411.89C146.549 411.526 146.865 411.244 147.264 411.045C147.671 410.846 148.118 410.746 148.603 410.746ZM154.89 411.851V416.05C154.89 416.397 154.964 416.644 155.111 416.791C155.259 416.93 155.514 416.999 155.878 416.999H156.749V418H155.683C155.025 418 154.531 417.848 154.201 417.545C153.872 417.242 153.707 416.743 153.707 416.05V411.851H152.784V410.876H153.707V409.082H154.89V410.876H156.749V411.851H154.89ZM162.831 408.38V418H161.648V408.38H162.831ZM165.459 409.719C165.233 409.719 165.043 409.641 164.887 409.485C164.731 409.329 164.653 409.138 164.653 408.913C164.653 408.688 164.731 408.497 164.887 408.341C165.043 408.185 165.233 408.107 165.459 408.107C165.675 408.107 165.857 408.185 166.005 408.341C166.161 408.497 166.239 408.688 166.239 408.913C166.239 409.138 166.161 409.329 166.005 409.485C165.857 409.641 165.675 409.719 165.459 409.719ZM166.031 410.876V418H164.848V410.876H166.031ZM171.518 410.746C172.385 410.746 173.087 411.01 173.624 411.539C174.161 412.059 174.43 412.813 174.43 413.801V418H173.26V413.97C173.26 413.259 173.082 412.718 172.727 412.345C172.372 411.964 171.886 411.773 171.271 411.773C170.647 411.773 170.149 411.968 169.776 412.358C169.412 412.748 169.23 413.316 169.23 414.061V418H168.047V410.876H169.23V411.89C169.464 411.526 169.78 411.244 170.179 411.045C170.586 410.846 171.033 410.746 171.518 410.746ZM180.34 418L177.545 414.854V418H176.362V408.38H177.545V414.035L180.288 410.876H181.939L178.585 414.425L181.952 418H180.34ZM189.553 414.165C189.553 414.39 189.54 414.629 189.514 414.88H183.82C183.863 415.582 184.101 416.132 184.535 416.531C184.977 416.921 185.51 417.116 186.134 417.116C186.645 417.116 187.07 416.999 187.408 416.765C187.754 416.522 187.997 416.202 188.136 415.803H189.41C189.219 416.488 188.838 417.047 188.266 417.48C187.694 417.905 186.983 418.117 186.134 418.117C185.458 418.117 184.851 417.965 184.314 417.662C183.785 417.359 183.369 416.93 183.066 416.375C182.762 415.812 182.611 415.162 182.611 414.425C182.611 413.688 182.758 413.043 183.053 412.488C183.347 411.933 183.759 411.509 184.288 411.214C184.825 410.911 185.44 410.759 186.134 410.759C186.81 410.759 187.408 410.906 187.928 411.201C188.448 411.496 188.846 411.903 189.124 412.423C189.41 412.934 189.553 413.515 189.553 414.165ZM188.331 413.918C188.331 413.467 188.231 413.082 188.032 412.761C187.832 412.432 187.559 412.185 187.213 412.02C186.875 411.847 186.498 411.76 186.082 411.76C185.484 411.76 184.972 411.951 184.548 412.332C184.132 412.713 183.893 413.242 183.833 413.918H188.331ZM190.672 414.412C190.672 413.684 190.82 413.047 191.114 412.501C191.409 411.946 191.812 411.517 192.323 411.214C192.843 410.911 193.424 410.759 194.065 410.759C194.62 410.759 195.136 410.889 195.612 411.149C196.089 411.4 196.453 411.734 196.704 412.15V408.38H197.9V418H196.704V416.661C196.47 417.086 196.124 417.437 195.664 417.714C195.205 417.983 194.668 418.117 194.052 418.117C193.42 418.117 192.843 417.961 192.323 417.649C191.812 417.337 191.409 416.899 191.114 416.336C190.82 415.773 190.672 415.131 190.672 414.412ZM196.704 414.425C196.704 413.888 196.596 413.42 196.379 413.021C196.163 412.622 195.868 412.319 195.495 412.111C195.131 411.894 194.728 411.786 194.286 411.786C193.844 411.786 193.441 411.89 193.077 412.098C192.713 412.306 192.423 412.609 192.206 413.008C191.99 413.407 191.881 413.875 191.881 414.412C191.881 414.958 191.99 415.435 192.206 415.842C192.423 416.241 192.713 416.548 193.077 416.765C193.441 416.973 193.844 417.077 194.286 417.077C194.728 417.077 195.131 416.973 195.495 416.765C195.868 416.548 196.163 416.241 196.379 415.842C196.596 415.435 196.704 414.962 196.704 414.425ZM204.808 411.851V416.05C204.808 416.397 204.882 416.644 205.029 416.791C205.177 416.93 205.432 416.999 205.796 416.999H206.667V418H205.601C204.943 418 204.449 417.848 204.119 417.545C203.79 417.242 203.625 416.743 203.625 416.05V411.851H202.702V410.876H203.625V409.082H204.808V410.876H206.667V411.851H204.808ZM211.208 418.117C210.54 418.117 209.934 417.965 209.388 417.662C208.85 417.359 208.426 416.93 208.114 416.375C207.81 415.812 207.659 415.162 207.659 414.425C207.659 413.697 207.815 413.056 208.127 412.501C208.447 411.938 208.881 411.509 209.427 411.214C209.973 410.911 210.584 410.759 211.26 410.759C211.936 410.759 212.547 410.911 213.093 411.214C213.639 411.509 214.068 411.933 214.38 412.488C214.7 413.043 214.861 413.688 214.861 414.425C214.861 415.162 214.696 415.812 214.367 416.375C214.046 416.93 213.608 417.359 213.054 417.662C212.499 417.965 211.884 418.117 211.208 418.117ZM211.208 417.077C211.632 417.077 212.031 416.977 212.404 416.778C212.776 416.579 213.075 416.28 213.301 415.881C213.535 415.482 213.652 414.997 213.652 414.425C213.652 413.853 213.539 413.368 213.314 412.969C213.088 412.57 212.794 412.276 212.43 412.085C212.066 411.886 211.671 411.786 211.247 411.786C210.813 411.786 210.415 411.886 210.051 412.085C209.695 412.276 209.409 412.57 209.193 412.969C208.976 413.368 208.868 413.853 208.868 414.425C208.868 415.006 208.972 415.495 209.18 415.894C209.396 416.293 209.682 416.592 210.038 416.791C210.393 416.982 210.783 417.077 211.208 417.077ZM226.382 414.165C226.382 414.39 226.369 414.629 226.343 414.88H220.649C220.692 415.582 220.931 416.132 221.364 416.531C221.806 416.921 222.339 417.116 222.963 417.116C223.474 417.116 223.899 416.999 224.237 416.765C224.584 416.522 224.826 416.202 224.965 415.803H226.239C226.048 416.488 225.667 417.047 225.095 417.48C224.523 417.905 223.812 418.117 222.963 418.117C222.287 418.117 221.68 417.965 221.143 417.662C220.614 417.359 220.198 416.93 219.895 416.375C219.592 415.812 219.44 415.162 219.44 414.425C219.44 413.688 219.587 413.043 219.882 412.488C220.177 411.933 220.588 411.509 221.117 411.214C221.654 410.911 222.27 410.759 222.963 410.759C223.639 410.759 224.237 410.906 224.757 411.201C225.277 411.496 225.676 411.903 225.953 412.423C226.239 412.934 226.382 413.515 226.382 414.165ZM225.16 413.918C225.16 413.467 225.06 413.082 224.861 412.761C224.662 412.432 224.389 412.185 224.042 412.02C223.704 411.847 223.327 411.76 222.911 411.76C222.313 411.76 221.802 411.951 221.377 412.332C220.961 412.713 220.723 413.242 220.662 413.918H225.16ZM236.51 410.746C237.065 410.746 237.559 410.863 237.992 411.097C238.426 411.322 238.768 411.665 239.019 412.124C239.271 412.583 239.396 413.142 239.396 413.801V418H238.226V413.97C238.226 413.259 238.049 412.718 237.693 412.345C237.347 411.964 236.874 411.773 236.276 411.773C235.661 411.773 235.171 411.972 234.807 412.371C234.443 412.761 234.261 413.329 234.261 414.074V418H233.091V413.97C233.091 413.259 232.914 412.718 232.558 412.345C232.212 411.964 231.739 411.773 231.141 411.773C230.526 411.773 230.036 411.972 229.672 412.371C229.308 412.761 229.126 413.329 229.126 414.074V418H227.943V410.876H229.126V411.903C229.36 411.53 229.672 411.244 230.062 411.045C230.461 410.846 230.899 410.746 231.375 410.746C231.973 410.746 232.502 410.88 232.961 411.149C233.421 411.418 233.763 411.812 233.988 412.332C234.188 411.829 234.517 411.439 234.976 411.162C235.436 410.885 235.947 410.746 236.51 410.746ZM240.895 414.412C240.895 413.684 241.042 413.047 241.337 412.501C241.632 411.946 242.035 411.517 242.546 411.214C243.066 410.911 243.642 410.759 244.275 410.759C244.899 410.759 245.441 410.893 245.9 411.162C246.359 411.431 246.702 411.769 246.927 412.176V410.876H248.123V418H246.927V416.674C246.693 417.09 246.342 417.437 245.874 417.714C245.415 417.983 244.877 418.117 244.262 418.117C243.629 418.117 243.057 417.961 242.546 417.649C242.035 417.337 241.632 416.899 241.337 416.336C241.042 415.773 240.895 415.131 240.895 414.412ZM246.927 414.425C246.927 413.888 246.819 413.42 246.602 413.021C246.385 412.622 246.091 412.319 245.718 412.111C245.354 411.894 244.951 411.786 244.509 411.786C244.067 411.786 243.664 411.89 243.3 412.098C242.936 412.306 242.646 412.609 242.429 413.008C242.212 413.407 242.104 413.875 242.104 414.412C242.104 414.958 242.212 415.435 242.429 415.842C242.646 416.241 242.936 416.548 243.3 416.765C243.664 416.973 244.067 417.077 244.509 417.077C244.951 417.077 245.354 416.973 245.718 416.765C246.091 416.548 246.385 416.241 246.602 415.842C246.819 415.435 246.927 414.962 246.927 414.425ZM250.733 409.719C250.508 409.719 250.317 409.641 250.161 409.485C250.005 409.329 249.927 409.138 249.927 408.913C249.927 408.688 250.005 408.497 250.161 408.341C250.317 408.185 250.508 408.107 250.733 408.107C250.95 408.107 251.132 408.185 251.279 408.341C251.435 408.497 251.513 408.688 251.513 408.913C251.513 409.138 251.435 409.329 251.279 409.485C251.132 409.641 250.95 409.719 250.733 409.719ZM251.305 410.876V418H250.122V410.876H251.305ZM254.504 408.38V418H253.321V408.38H254.504ZM259.544 414.412C259.544 413.684 259.692 413.047 259.986 412.501C260.281 411.946 260.684 411.517 261.195 411.214C261.715 410.911 262.292 410.759 262.924 410.759C263.548 410.759 264.09 410.893 264.549 411.162C265.009 411.431 265.351 411.769 265.576 412.176V410.876H266.772V418H265.576V416.674C265.342 417.09 264.991 417.437 264.523 417.714C264.064 417.983 263.527 418.117 262.911 418.117C262.279 418.117 261.707 417.961 261.195 417.649C260.684 417.337 260.281 416.899 259.986 416.336C259.692 415.773 259.544 415.131 259.544 414.412ZM265.576 414.425C265.576 413.888 265.468 413.42 265.251 413.021C265.035 412.622 264.74 412.319 264.367 412.111C264.003 411.894 263.6 411.786 263.158 411.786C262.716 411.786 262.313 411.89 261.949 412.098C261.585 412.306 261.295 412.609 261.078 413.008C260.862 413.407 260.753 413.875 260.753 414.412C260.753 414.958 260.862 415.435 261.078 415.842C261.295 416.241 261.585 416.548 261.949 416.765C262.313 416.973 262.716 417.077 263.158 417.077C263.6 417.077 264.003 416.973 264.367 416.765C264.74 416.548 265.035 416.241 265.251 415.842C265.468 415.435 265.576 414.962 265.576 414.425ZM268.33 414.412C268.33 413.684 268.477 413.047 268.772 412.501C269.066 411.946 269.469 411.517 269.981 411.214C270.501 410.911 271.081 410.759 271.723 410.759C272.277 410.759 272.793 410.889 273.27 411.149C273.746 411.4 274.11 411.734 274.362 412.15V408.38H275.558V418H274.362V416.661C274.128 417.086 273.781 417.437 273.322 417.714C272.862 417.983 272.325 418.117 271.71 418.117C271.077 418.117 270.501 417.961 269.981 417.649C269.469 417.337 269.066 416.899 268.772 416.336C268.477 415.773 268.33 415.131 268.33 414.412ZM274.362 414.425C274.362 413.888 274.253 413.42 274.037 413.021C273.82 412.622 273.525 412.319 273.153 412.111C272.789 411.894 272.386 411.786 271.944 411.786C271.502 411.786 271.099 411.89 270.735 412.098C270.371 412.306 270.08 412.609 269.864 413.008C269.647 413.407 269.539 413.875 269.539 414.412C269.539 414.958 269.647 415.435 269.864 415.842C270.08 416.241 270.371 416.548 270.735 416.765C271.099 416.973 271.502 417.077 271.944 417.077C272.386 417.077 272.789 416.973 273.153 416.765C273.525 416.548 273.82 416.241 274.037 415.842C274.253 415.435 274.362 414.962 274.362 414.425ZM277.115 414.412C277.115 413.684 277.262 413.047 277.557 412.501C277.851 411.946 278.254 411.517 278.766 411.214C279.286 410.911 279.866 410.759 280.508 410.759C281.062 410.759 281.578 410.889 282.055 411.149C282.531 411.4 282.895 411.734 283.147 412.15V408.38H284.343V418H283.147V416.661C282.913 417.086 282.566 417.437 282.107 417.714C281.647 417.983 281.11 418.117 280.495 418.117C279.862 418.117 279.286 417.961 278.766 417.649C278.254 417.337 277.851 416.899 277.557 416.336C277.262 415.773 277.115 415.131 277.115 414.412ZM283.147 414.425C283.147 413.888 283.038 413.42 282.822 413.021C282.605 412.622 282.31 412.319 281.938 412.111C281.574 411.894 281.171 411.786 280.729 411.786C280.287 411.786 279.884 411.89 279.52 412.098C279.156 412.306 278.865 412.609 278.649 413.008C278.432 413.407 278.324 413.875 278.324 414.412C278.324 414.958 278.432 415.435 278.649 415.842C278.865 416.241 279.156 416.548 279.52 416.765C279.884 416.973 280.287 417.077 280.729 417.077C281.171 417.077 281.574 416.973 281.938 416.765C282.31 416.548 282.605 416.241 282.822 415.842C283.038 415.435 283.147 414.962 283.147 414.425ZM287.525 412.033C287.733 411.626 288.027 411.309 288.409 411.084C288.799 410.859 289.271 410.746 289.826 410.746V411.968H289.514C288.188 411.968 287.525 412.687 287.525 414.126V418H286.342V410.876H287.525V412.033ZM297.691 414.165C297.691 414.39 297.678 414.629 297.652 414.88H291.958C292.002 415.582 292.24 416.132 292.673 416.531C293.115 416.921 293.648 417.116 294.272 417.116C294.784 417.116 295.208 416.999 295.546 416.765C295.893 416.522 296.136 416.202 296.274 415.803H297.548C297.358 416.488 296.976 417.047 296.404 417.48C295.832 417.905 295.122 418.117 294.272 418.117C293.596 418.117 292.99 417.965 292.452 417.662C291.924 417.359 291.508 416.93 291.204 416.375C290.901 415.812 290.749 415.162 290.749 414.425C290.749 413.688 290.897 413.043 291.191 412.488C291.486 411.933 291.898 411.509 292.426 411.214C292.964 410.911 293.579 410.759 294.272 410.759C294.948 410.759 295.546 410.906 296.066 411.201C296.586 411.496 296.985 411.903 297.262 412.423C297.548 412.934 297.691 413.515 297.691 414.165ZM296.469 413.918C296.469 413.467 296.37 413.082 296.17 412.761C295.971 412.432 295.698 412.185 295.351 412.02C295.013 411.847 294.636 411.76 294.22 411.76C293.622 411.76 293.111 411.951 292.686 412.332C292.27 412.713 292.032 413.242 291.971 413.918H296.469ZM301.775 418.117C301.229 418.117 300.739 418.026 300.306 417.844C299.873 417.653 299.53 417.393 299.279 417.064C299.028 416.726 298.889 416.34 298.863 415.907H300.085C300.12 416.262 300.284 416.553 300.579 416.778C300.882 417.003 301.277 417.116 301.762 417.116C302.213 417.116 302.568 417.016 302.828 416.817C303.088 416.618 303.218 416.366 303.218 416.063C303.218 415.751 303.079 415.521 302.802 415.374C302.525 415.218 302.096 415.066 301.515 414.919C300.986 414.78 300.553 414.642 300.215 414.503C299.886 414.356 299.6 414.143 299.357 413.866C299.123 413.58 299.006 413.207 299.006 412.748C299.006 412.384 299.114 412.05 299.331 411.747C299.548 411.444 299.855 411.205 300.254 411.032C300.653 410.85 301.108 410.759 301.619 410.759C302.408 410.759 303.045 410.958 303.53 411.357C304.015 411.756 304.275 412.302 304.31 412.995H303.127C303.101 412.622 302.949 412.323 302.672 412.098C302.403 411.873 302.039 411.76 301.58 411.76C301.155 411.76 300.817 411.851 300.566 412.033C300.315 412.215 300.189 412.453 300.189 412.748C300.189 412.982 300.263 413.177 300.41 413.333C300.566 413.48 300.757 413.602 300.982 413.697C301.216 413.784 301.537 413.883 301.944 413.996C302.455 414.135 302.871 414.273 303.192 414.412C303.513 414.542 303.786 414.741 304.011 415.01C304.245 415.279 304.366 415.63 304.375 416.063C304.375 416.453 304.267 416.804 304.05 417.116C303.833 417.428 303.526 417.675 303.127 417.857C302.737 418.03 302.286 418.117 301.775 418.117ZM308.567 418.117C308.021 418.117 307.531 418.026 307.098 417.844C306.665 417.653 306.322 417.393 306.071 417.064C305.82 416.726 305.681 416.34 305.655 415.907H306.877C306.912 416.262 307.076 416.553 307.371 416.778C307.674 417.003 308.069 417.116 308.554 417.116C309.005 417.116 309.36 417.016 309.62 416.817C309.88 416.618 310.01 416.366 310.01 416.063C310.01 415.751 309.871 415.521 309.594 415.374C309.317 415.218 308.888 415.066 308.307 414.919C307.778 414.78 307.345 414.642 307.007 414.503C306.678 414.356 306.392 414.143 306.149 413.866C305.915 413.58 305.798 413.207 305.798 412.748C305.798 412.384 305.906 412.05 306.123 411.747C306.34 411.444 306.647 411.205 307.046 411.032C307.445 410.85 307.9 410.759 308.411 410.759C309.2 410.759 309.837 410.958 310.322 411.357C310.807 411.756 311.067 412.302 311.102 412.995H309.919C309.893 412.622 309.741 412.323 309.464 412.098C309.195 411.873 308.831 411.76 308.372 411.76C307.947 411.76 307.609 411.851 307.358 412.033C307.107 412.215 306.981 412.453 306.981 412.748C306.981 412.982 307.055 413.177 307.202 413.333C307.358 413.48 307.549 413.602 307.774 413.697C308.008 413.784 308.329 413.883 308.736 413.996C309.247 414.135 309.663 414.273 309.984 414.412C310.305 414.542 310.578 414.741 310.803 415.01C311.037 415.279 311.158 415.63 311.167 416.063C311.167 416.453 311.059 416.804 310.842 417.116C310.625 417.428 310.318 417.675 309.919 417.857C309.529 418.03 309.078 418.117 308.567 418.117ZM313.214 418.078C312.989 418.078 312.798 418 312.642 417.844C312.486 417.688 312.408 417.497 312.408 417.272C312.408 417.047 312.486 416.856 312.642 416.7C312.798 416.544 312.989 416.466 313.214 416.466C313.431 416.466 313.613 416.544 313.76 416.7C313.916 416.856 313.994 417.047 313.994 417.272C313.994 417.497 313.916 417.688 313.76 417.844C313.613 418 313.431 418.078 313.214 418.078Z" fill="#6C6F74"/>
<circle cx="60.5" cy="411.5" r="8.5" fill="#C03636"/>
<line x1="56.7022" y1="407.521" x2="64.3696" y2="415.409" stroke="white" stroke-opacity="0.8" stroke-width="1.1"/>
<line x1="64.4892" y1="407.714" x2="56.5907" y2="415.37" stroke="white" stroke-opacity="0.8" stroke-width="1.1"/>
<rect x="44" y="298" width="295" height="83" rx="10" fill="#84E158" fill-opacity="0.4"/>
<path d="M88.357 323.985H84.405L83.677 326H82.429L85.705 316.991H87.07L90.333 326H89.085L88.357 323.985ZM88.019 323.023L86.381 318.447L84.743 323.023H88.019ZM95.2318 318.746C96.0984 318.746 96.8004 319.01 97.3378 319.539C97.8751 320.059 98.1438 320.813 98.1438 321.801V326H96.9738V321.97C96.9738 321.259 96.7961 320.718 96.4408 320.345C96.0854 319.964 95.6001 319.773 94.9848 319.773C94.3608 319.773 93.8624 319.968 93.4898 320.358C93.1258 320.748 92.9438 321.316 92.9438 322.061V326H91.7608V318.876H92.9438V319.89C93.1778 319.526 93.4941 319.244 93.8928 319.045C94.3001 318.846 94.7464 318.746 95.2318 318.746ZM110.042 322.165C110.042 322.39 110.029 322.629 110.003 322.88H104.309C104.352 323.582 104.591 324.132 105.024 324.531C105.466 324.921 105.999 325.116 106.623 325.116C107.134 325.116 107.559 324.999 107.897 324.765C108.244 324.522 108.486 324.202 108.625 323.803H109.899C109.708 324.488 109.327 325.047 108.755 325.48C108.183 325.905 107.472 326.117 106.623 326.117C105.947 326.117 105.34 325.965 104.803 325.662C104.274 325.359 103.858 324.93 103.555 324.375C103.252 323.812 103.1 323.162 103.1 322.425C103.1 321.688 103.247 321.043 103.542 320.488C103.837 319.933 104.248 319.509 104.777 319.214C105.314 318.911 105.93 318.759 106.623 318.759C107.299 318.759 107.897 318.906 108.417 319.201C108.937 319.496 109.336 319.903 109.613 320.423C109.899 320.934 110.042 321.515 110.042 322.165ZM108.82 321.918C108.82 321.467 108.72 321.082 108.521 320.761C108.322 320.432 108.049 320.185 107.702 320.02C107.364 319.847 106.987 319.76 106.571 319.76C105.973 319.76 105.462 319.951 105.037 320.332C104.621 320.713 104.383 321.242 104.322 321.918H108.82ZM120.171 318.746C120.725 318.746 121.219 318.863 121.653 319.097C122.086 319.322 122.428 319.665 122.68 320.124C122.931 320.583 123.057 321.142 123.057 321.801V326H121.887V321.97C121.887 321.259 121.709 320.718 121.354 320.345C121.007 319.964 120.535 319.773 119.937 319.773C119.321 319.773 118.832 319.972 118.468 320.371C118.104 320.761 117.922 321.329 117.922 322.074V326H116.752V321.97C116.752 321.259 116.574 320.718 116.219 320.345C115.872 319.964 115.4 319.773 114.802 319.773C114.186 319.773 113.697 319.972 113.333 320.371C112.969 320.761 112.787 321.329 112.787 322.074V326H111.604V318.876H112.787V319.903C113.021 319.53 113.333 319.244 113.723 319.045C114.121 318.846 114.559 318.746 115.036 318.746C115.634 318.746 116.162 318.88 116.622 319.149C117.081 319.418 117.423 319.812 117.649 320.332C117.848 319.829 118.177 319.439 118.637 319.162C119.096 318.885 119.607 318.746 120.171 318.746ZM124.555 322.412C124.555 321.684 124.702 321.047 124.997 320.501C125.292 319.946 125.695 319.517 126.206 319.214C126.726 318.911 127.302 318.759 127.935 318.759C128.559 318.759 129.101 318.893 129.56 319.162C130.019 319.431 130.362 319.769 130.587 320.176V318.876H131.783V326H130.587V324.674C130.353 325.09 130.002 325.437 129.534 325.714C129.075 325.983 128.537 326.117 127.922 326.117C127.289 326.117 126.717 325.961 126.206 325.649C125.695 325.337 125.292 324.899 124.997 324.336C124.702 323.773 124.555 323.131 124.555 322.412ZM130.587 322.425C130.587 321.888 130.479 321.42 130.262 321.021C130.045 320.622 129.751 320.319 129.378 320.111C129.014 319.894 128.611 319.786 128.169 319.786C127.727 319.786 127.324 319.89 126.96 320.098C126.596 320.306 126.306 320.609 126.089 321.008C125.872 321.407 125.764 321.875 125.764 322.412C125.764 322.958 125.872 323.435 126.089 323.842C126.306 324.241 126.596 324.548 126.96 324.765C127.324 324.973 127.727 325.077 128.169 325.077C128.611 325.077 129.014 324.973 129.378 324.765C129.751 324.548 130.045 324.241 130.262 323.842C130.479 323.435 130.587 322.962 130.587 322.425ZM134.393 317.719C134.168 317.719 133.977 317.641 133.821 317.485C133.665 317.329 133.587 317.138 133.587 316.913C133.587 316.688 133.665 316.497 133.821 316.341C133.977 316.185 134.168 316.107 134.393 316.107C134.61 316.107 134.792 316.185 134.939 316.341C135.095 316.497 135.173 316.688 135.173 316.913C135.173 317.138 135.095 317.329 134.939 317.485C134.792 317.641 134.61 317.719 134.393 317.719ZM134.965 318.876V326H133.782V318.876H134.965ZM138.164 316.38V326H136.981V316.38H138.164ZM147.183 318.746C147.72 318.746 148.205 318.863 148.639 319.097C149.072 319.322 149.41 319.665 149.653 320.124C149.904 320.583 150.03 321.142 150.03 321.801V326H148.86V321.97C148.86 321.259 148.682 320.718 148.327 320.345C147.971 319.964 147.486 319.773 146.871 319.773C146.247 319.773 145.748 319.968 145.376 320.358C145.012 320.748 144.83 321.316 144.83 322.061V326H143.647V316.38H144.83V319.89C145.064 319.526 145.384 319.244 145.792 319.045C146.208 318.846 146.671 318.746 147.183 318.746ZM151.52 322.412C151.52 321.684 151.667 321.047 151.962 320.501C152.257 319.946 152.66 319.517 153.171 319.214C153.691 318.911 154.267 318.759 154.9 318.759C155.524 318.759 156.066 318.893 156.525 319.162C156.984 319.431 157.327 319.769 157.552 320.176V318.876H158.748V326H157.552V324.674C157.318 325.09 156.967 325.437 156.499 325.714C156.04 325.983 155.502 326.117 154.887 326.117C154.254 326.117 153.682 325.961 153.171 325.649C152.66 325.337 152.257 324.899 151.962 324.336C151.667 323.773 151.52 323.131 151.52 322.412ZM157.552 322.425C157.552 321.888 157.444 321.42 157.227 321.021C157.01 320.622 156.716 320.319 156.343 320.111C155.979 319.894 155.576 319.786 155.134 319.786C154.692 319.786 154.289 319.89 153.925 320.098C153.561 320.306 153.271 320.609 153.054 321.008C152.837 321.407 152.729 321.875 152.729 322.412C152.729 322.958 152.837 323.435 153.054 323.842C153.271 324.241 153.561 324.548 153.925 324.765C154.289 324.973 154.692 325.077 155.134 325.077C155.576 325.077 155.979 324.973 156.343 324.765C156.716 324.548 157.01 324.241 157.227 323.842C157.444 323.435 157.552 322.962 157.552 322.425ZM163.269 326.117C162.723 326.117 162.233 326.026 161.8 325.844C161.367 325.653 161.024 325.393 160.773 325.064C160.522 324.726 160.383 324.34 160.357 323.907H161.579C161.614 324.262 161.778 324.553 162.073 324.778C162.376 325.003 162.771 325.116 163.256 325.116C163.707 325.116 164.062 325.016 164.322 324.817C164.582 324.618 164.712 324.366 164.712 324.063C164.712 323.751 164.573 323.521 164.296 323.374C164.019 323.218 163.59 323.066 163.009 322.919C162.48 322.78 162.047 322.642 161.709 322.503C161.38 322.356 161.094 322.143 160.851 321.866C160.617 321.58 160.5 321.207 160.5 320.748C160.5 320.384 160.608 320.05 160.825 319.747C161.042 319.444 161.349 319.205 161.748 319.032C162.147 318.85 162.602 318.759 163.113 318.759C163.902 318.759 164.539 318.958 165.024 319.357C165.509 319.756 165.769 320.302 165.804 320.995H164.621C164.595 320.622 164.443 320.323 164.166 320.098C163.897 319.873 163.533 319.76 163.074 319.76C162.649 319.76 162.311 319.851 162.06 320.033C161.809 320.215 161.683 320.453 161.683 320.748C161.683 320.982 161.757 321.177 161.904 321.333C162.06 321.48 162.251 321.602 162.476 321.697C162.71 321.784 163.031 321.883 163.438 321.996C163.949 322.135 164.365 322.273 164.686 322.412C165.007 322.542 165.28 322.741 165.505 323.01C165.739 323.279 165.86 323.63 165.869 324.063C165.869 324.453 165.761 324.804 165.544 325.116C165.327 325.428 165.02 325.675 164.621 325.857C164.231 326.03 163.78 326.117 163.269 326.117ZM172.188 320.202C172.431 319.777 172.786 319.431 173.254 319.162C173.722 318.893 174.255 318.759 174.853 318.759C175.494 318.759 176.071 318.911 176.582 319.214C177.093 319.517 177.496 319.946 177.791 320.501C178.086 321.047 178.233 321.684 178.233 322.412C178.233 323.131 178.086 323.773 177.791 324.336C177.496 324.899 177.089 325.337 176.569 325.649C176.058 325.961 175.486 326.117 174.853 326.117C174.238 326.117 173.696 325.983 173.228 325.714C172.769 325.445 172.422 325.103 172.188 324.687V326H171.005V316.38H172.188V320.202ZM177.024 322.412C177.024 321.875 176.916 321.407 176.699 321.008C176.482 320.609 176.188 320.306 175.815 320.098C175.451 319.89 175.048 319.786 174.606 319.786C174.173 319.786 173.77 319.894 173.397 320.111C173.033 320.319 172.738 320.627 172.513 321.034C172.296 321.433 172.188 321.896 172.188 322.425C172.188 322.962 172.296 323.435 172.513 323.842C172.738 324.241 173.033 324.548 173.397 324.765C173.77 324.973 174.173 325.077 174.606 325.077C175.048 325.077 175.451 324.973 175.815 324.765C176.188 324.548 176.482 324.241 176.699 323.842C176.916 323.435 177.024 322.958 177.024 322.412ZM186.29 322.165C186.29 322.39 186.277 322.629 186.251 322.88H180.557C180.6 323.582 180.839 324.132 181.272 324.531C181.714 324.921 182.247 325.116 182.871 325.116C183.382 325.116 183.807 324.999 184.145 324.765C184.492 324.522 184.734 324.202 184.873 323.803H186.147C185.956 324.488 185.575 325.047 185.003 325.48C184.431 325.905 183.72 326.117 182.871 326.117C182.195 326.117 181.588 325.965 181.051 325.662C180.522 325.359 180.106 324.93 179.803 324.375C179.5 323.812 179.348 323.162 179.348 322.425C179.348 321.688 179.495 321.043 179.79 320.488C180.085 319.933 180.496 319.509 181.025 319.214C181.562 318.911 182.178 318.759 182.871 318.759C183.547 318.759 184.145 318.906 184.665 319.201C185.185 319.496 185.584 319.903 185.861 320.423C186.147 320.934 186.29 321.515 186.29 322.165ZM185.068 321.918C185.068 321.467 184.968 321.082 184.769 320.761C184.57 320.432 184.297 320.185 183.95 320.02C183.612 319.847 183.235 319.76 182.819 319.76C182.221 319.76 181.71 319.951 181.285 320.332C180.869 320.713 180.631 321.242 180.57 321.918H185.068ZM194.352 322.165C194.352 322.39 194.339 322.629 194.313 322.88H188.619C188.662 323.582 188.9 324.132 189.334 324.531C189.776 324.921 190.309 325.116 190.933 325.116C191.444 325.116 191.869 324.999 192.207 324.765C192.553 324.522 192.796 324.202 192.935 323.803H194.209C194.018 324.488 193.637 325.047 193.065 325.48C192.493 325.905 191.782 326.117 190.933 326.117C190.257 326.117 189.65 325.965 189.113 325.662C188.584 325.359 188.168 324.93 187.865 324.375C187.561 323.812 187.41 323.162 187.41 322.425C187.41 321.688 187.557 321.043 187.852 320.488C188.146 319.933 188.558 319.509 189.087 319.214C189.624 318.911 190.239 318.759 190.933 318.759C191.609 318.759 192.207 318.906 192.727 319.201C193.247 319.496 193.645 319.903 193.923 320.423C194.209 320.934 194.352 321.515 194.352 322.165ZM193.13 321.918C193.13 321.467 193.03 321.082 192.831 320.761C192.631 320.432 192.358 320.185 192.012 320.02C191.674 319.847 191.297 319.76 190.881 319.76C190.283 319.76 189.771 319.951 189.347 320.332C188.931 320.713 188.692 321.242 188.632 321.918H193.13ZM199.384 318.746C200.251 318.746 200.953 319.01 201.49 319.539C202.027 320.059 202.296 320.813 202.296 321.801V326H201.126V321.97C201.126 321.259 200.948 320.718 200.593 320.345C200.238 319.964 199.752 319.773 199.137 319.773C198.513 319.773 198.015 319.968 197.642 320.358C197.278 320.748 197.096 321.316 197.096 322.061V326H195.913V318.876H197.096V319.89C197.33 319.526 197.646 319.244 198.045 319.045C198.452 318.846 198.899 318.746 199.384 318.746ZM210.216 326.117C209.67 326.117 209.181 326.026 208.747 325.844C208.314 325.653 207.972 325.393 207.72 325.064C207.469 324.726 207.33 324.34 207.304 323.907H208.526C208.561 324.262 208.726 324.553 209.02 324.778C209.324 325.003 209.718 325.116 210.203 325.116C210.654 325.116 211.009 325.016 211.269 324.817C211.529 324.618 211.659 324.366 211.659 324.063C211.659 323.751 211.521 323.521 211.243 323.374C210.966 323.218 210.537 323.066 209.956 322.919C209.428 322.78 208.994 322.642 208.656 322.503C208.327 322.356 208.041 322.143 207.798 321.866C207.564 321.58 207.447 321.207 207.447 320.748C207.447 320.384 207.556 320.05 207.772 319.747C207.989 319.444 208.297 319.205 208.695 319.032C209.094 318.85 209.549 318.759 210.06 318.759C210.849 318.759 211.486 318.958 211.971 319.357C212.457 319.756 212.717 320.302 212.751 320.995H211.568C211.542 320.622 211.391 320.323 211.113 320.098C210.845 319.873 210.481 319.76 210.021 319.76C209.597 319.76 209.259 319.851 209.007 320.033C208.756 320.215 208.63 320.453 208.63 320.748C208.63 320.982 208.704 321.177 208.851 321.333C209.007 321.48 209.198 321.602 209.423 321.697C209.657 321.784 209.978 321.883 210.385 321.996C210.897 322.135 211.313 322.273 211.633 322.412C211.954 322.542 212.227 322.741 212.452 323.01C212.686 323.279 212.808 323.63 212.816 324.063C212.816 324.453 212.708 324.804 212.491 325.116C212.275 325.428 211.967 325.675 211.568 325.857C211.178 326.03 210.728 326.117 210.216 326.117ZM220.986 322.165C220.986 322.39 220.973 322.629 220.947 322.88H215.253C215.297 323.582 215.535 324.132 215.968 324.531C216.41 324.921 216.943 325.116 217.567 325.116C218.079 325.116 218.503 324.999 218.841 324.765C219.188 324.522 219.431 324.202 219.569 323.803H220.843C220.653 324.488 220.271 325.047 219.699 325.48C219.127 325.905 218.417 326.117 217.567 326.117C216.891 326.117 216.285 325.965 215.747 325.662C215.219 325.359 214.803 324.93 214.499 324.375C214.196 323.812 214.044 323.162 214.044 322.425C214.044 321.688 214.192 321.043 214.486 320.488C214.781 319.933 215.193 319.509 215.721 319.214C216.259 318.911 216.874 318.759 217.567 318.759C218.243 318.759 218.841 318.906 219.361 319.201C219.881 319.496 220.28 319.903 220.557 320.423C220.843 320.934 220.986 321.515 220.986 322.165ZM219.764 321.918C219.764 321.467 219.665 321.082 219.465 320.761C219.266 320.432 218.993 320.185 218.646 320.02C218.308 319.847 217.931 319.76 217.515 319.76C216.917 319.76 216.406 319.951 215.981 320.332C215.565 320.713 215.327 321.242 215.266 321.918H219.764ZM226.019 318.746C226.886 318.746 227.588 319.01 228.125 319.539C228.662 320.059 228.931 320.813 228.931 321.801V326H227.761V321.97C227.761 321.259 227.583 320.718 227.228 320.345C226.873 319.964 226.387 319.773 225.772 319.773C225.148 319.773 224.65 319.968 224.277 320.358C223.913 320.748 223.731 321.316 223.731 322.061V326H222.548V318.876H223.731V319.89C223.965 319.526 224.281 319.244 224.68 319.045C225.087 318.846 225.534 318.746 226.019 318.746ZM232.306 319.851V324.05C232.306 324.397 232.38 324.644 232.527 324.791C232.675 324.93 232.93 324.999 233.294 324.999H234.165V326H233.099C232.441 326 231.947 325.848 231.617 325.545C231.288 325.242 231.123 324.743 231.123 324.05V319.851H230.2V318.876H231.123V317.082H232.306V318.876H234.165V319.851H232.306ZM240.507 319.851V324.05C240.507 324.397 240.581 324.644 240.728 324.791C240.876 324.93 241.131 324.999 241.495 324.999H242.366V326H241.3C240.642 326 240.148 325.848 239.818 325.545C239.489 325.242 239.324 324.743 239.324 324.05V319.851H238.401V318.876H239.324V317.082H240.507V318.876H242.366V319.851H240.507ZM246.907 326.117C246.239 326.117 245.633 325.965 245.087 325.662C244.549 325.359 244.125 324.93 243.813 324.375C243.509 323.812 243.358 323.162 243.358 322.425C243.358 321.697 243.514 321.056 243.826 320.501C244.146 319.938 244.58 319.509 245.126 319.214C245.672 318.911 246.283 318.759 246.959 318.759C247.635 318.759 248.246 318.911 248.792 319.214C249.338 319.509 249.767 319.933 250.079 320.488C250.399 321.043 250.56 321.688 250.56 322.425C250.56 323.162 250.395 323.812 250.066 324.375C249.745 324.93 249.307 325.359 248.753 325.662C248.198 325.965 247.583 326.117 246.907 326.117ZM246.907 325.077C247.331 325.077 247.73 324.977 248.103 324.778C248.475 324.579 248.774 324.28 249 323.881C249.234 323.482 249.351 322.997 249.351 322.425C249.351 321.853 249.238 321.368 249.013 320.969C248.787 320.57 248.493 320.276 248.129 320.085C247.765 319.886 247.37 319.786 246.946 319.786C246.512 319.786 246.114 319.886 245.75 320.085C245.394 320.276 245.108 320.57 244.892 320.969C244.675 321.368 244.567 321.853 244.567 322.425C244.567 323.006 244.671 323.495 244.879 323.894C245.095 324.293 245.381 324.592 245.737 324.791C246.092 324.982 246.482 325.077 246.907 325.077ZM261.717 318.876L257.427 329.354H256.205L257.609 325.922L254.736 318.876H256.049L258.285 324.648L260.495 318.876H261.717ZM266.013 326.117C265.346 326.117 264.739 325.965 264.193 325.662C263.656 325.359 263.231 324.93 262.919 324.375C262.616 323.812 262.464 323.162 262.464 322.425C262.464 321.697 262.62 321.056 262.932 320.501C263.253 319.938 263.686 319.509 264.232 319.214C264.778 318.911 265.389 318.759 266.065 318.759C266.741 318.759 267.352 318.911 267.898 319.214C268.444 319.509 268.873 319.933 269.185 320.488C269.506 321.043 269.666 321.688 269.666 322.425C269.666 323.162 269.502 323.812 269.172 324.375C268.852 324.93 268.414 325.359 267.859 325.662C267.305 325.965 266.689 326.117 266.013 326.117ZM266.013 325.077C266.438 325.077 266.837 324.977 267.209 324.778C267.582 324.579 267.881 324.28 268.106 323.881C268.34 323.482 268.457 322.997 268.457 322.425C268.457 321.853 268.345 321.368 268.119 320.969C267.894 320.57 267.599 320.276 267.235 320.085C266.871 319.886 266.477 319.786 266.052 319.786C265.619 319.786 265.22 319.886 264.856 320.085C264.501 320.276 264.215 320.57 263.998 320.969C263.782 321.368 263.673 321.853 263.673 322.425C263.673 323.006 263.777 323.495 263.985 323.894C264.202 324.293 264.488 324.592 264.843 324.791C265.199 324.982 265.589 325.077 266.013 325.077ZM277.54 318.876V326H276.357V324.947C276.131 325.311 275.815 325.597 275.408 325.805C275.009 326.004 274.567 326.104 274.082 326.104C273.527 326.104 273.029 325.991 272.587 325.766C272.145 325.532 271.794 325.185 271.534 324.726C271.282 324.267 271.157 323.708 271.157 323.049V318.876H272.327V322.893C272.327 323.595 272.504 324.137 272.86 324.518C273.215 324.891 273.7 325.077 274.316 325.077C274.948 325.077 275.447 324.882 275.811 324.492C276.175 324.102 276.357 323.534 276.357 322.789V318.876H277.54ZM280.72 320.033C280.928 319.626 281.223 319.309 281.604 319.084C281.994 318.859 282.466 318.746 283.021 318.746V319.968H282.709C281.383 319.968 280.72 320.687 280.72 322.126V326H279.537V318.876H280.72V320.033ZM294.353 322.165C294.353 322.39 294.34 322.629 294.314 322.88H288.62C288.663 323.582 288.901 324.132 289.335 324.531C289.777 324.921 290.31 325.116 290.934 325.116C291.445 325.116 291.87 324.999 292.208 324.765C292.554 324.522 292.797 324.202 292.936 323.803H294.21C294.019 324.488 293.638 325.047 293.066 325.48C292.494 325.905 291.783 326.117 290.934 326.117C290.258 326.117 289.651 325.965 289.114 325.662C288.585 325.359 288.169 324.93 287.866 324.375C287.562 323.812 287.411 323.162 287.411 322.425C287.411 321.688 287.558 321.043 287.853 320.488C288.147 319.933 288.559 319.509 289.088 319.214C289.625 318.911 290.24 318.759 290.934 318.759C291.61 318.759 292.208 318.906 292.728 319.201C293.248 319.496 293.646 319.903 293.924 320.423C294.21 320.934 294.353 321.515 294.353 322.165ZM293.131 321.918C293.131 321.467 293.031 321.082 292.832 320.761C292.632 320.432 292.359 320.185 292.013 320.02C291.675 319.847 291.298 319.76 290.882 319.76C290.284 319.76 289.772 319.951 289.348 320.332C288.932 320.713 288.693 321.242 288.633 321.918H293.131ZM304.481 318.746C305.036 318.746 305.53 318.863 305.963 319.097C306.396 319.322 306.739 319.665 306.99 320.124C307.241 320.583 307.367 321.142 307.367 321.801V326H306.197V321.97C306.197 321.259 306.019 320.718 305.664 320.345C305.317 319.964 304.845 319.773 304.247 319.773C303.632 319.773 303.142 319.972 302.778 320.371C302.414 320.761 302.232 321.329 302.232 322.074V326H301.062V321.97C301.062 321.259 300.884 320.718 300.529 320.345C300.182 319.964 299.71 319.773 299.112 319.773C298.497 319.773 298.007 319.972 297.643 320.371C297.279 320.761 297.097 321.329 297.097 322.074V326H295.914V318.876H297.097V319.903C297.331 319.53 297.643 319.244 298.033 319.045C298.432 318.846 298.869 318.746 299.346 318.746C299.944 318.746 300.473 318.88 300.932 319.149C301.391 319.418 301.734 319.812 301.959 320.332C302.158 319.829 302.488 319.439 302.947 319.162C303.406 318.885 303.918 318.746 304.481 318.746ZM308.866 322.412C308.866 321.684 309.013 321.047 309.308 320.501C309.602 319.946 310.005 319.517 310.517 319.214C311.037 318.911 311.613 318.759 312.246 318.759C312.87 318.759 313.411 318.893 313.871 319.162C314.33 319.431 314.672 319.769 314.898 320.176V318.876H316.094V326H314.898V324.674C314.664 325.09 314.313 325.437 313.845 325.714C313.385 325.983 312.848 326.117 312.233 326.117C311.6 326.117 311.028 325.961 310.517 325.649C310.005 325.337 309.602 324.899 309.308 324.336C309.013 323.773 308.866 323.131 308.866 322.412ZM314.898 322.425C314.898 321.888 314.789 321.42 314.573 321.021C314.356 320.622 314.061 320.319 313.689 320.111C313.325 319.894 312.922 319.786 312.48 319.786C312.038 319.786 311.635 319.89 311.271 320.098C310.907 320.306 310.616 320.609 310.4 321.008C310.183 321.407 310.075 321.875 310.075 322.412C310.075 322.958 310.183 323.435 310.4 323.842C310.616 324.241 310.907 324.548 311.271 324.765C311.635 324.973 312.038 325.077 312.48 325.077C312.922 325.077 313.325 324.973 313.689 324.765C314.061 324.548 314.356 324.241 314.573 323.842C314.789 323.435 314.898 322.962 314.898 322.425ZM318.704 317.719C318.478 317.719 318.288 317.641 318.132 317.485C317.976 317.329 317.898 317.138 317.898 316.913C317.898 316.688 317.976 316.497 318.132 316.341C318.288 316.185 318.478 316.107 318.704 316.107C318.92 316.107 319.102 316.185 319.25 316.341C319.406 316.497 319.484 316.688 319.484 316.913C319.484 317.138 319.406 317.329 319.25 317.485C319.102 317.641 318.92 317.719 318.704 317.719ZM319.276 318.876V326H318.093V318.876H319.276ZM322.475 316.38V326H321.292V316.38H322.475ZM82.559 338.412C82.559 337.684 82.7063 337.047 83.001 336.501C83.2957 335.946 83.6987 335.517 84.21 335.214C84.73 334.911 85.3063 334.759 85.939 334.759C86.563 334.759 87.1047 334.893 87.564 335.162C88.0233 335.431 88.3657 335.769 88.591 336.176V334.876H89.787V342H88.591V340.674C88.357 341.09 88.006 341.437 87.538 341.714C87.0787 341.983 86.5413 342.117 85.926 342.117C85.2933 342.117 84.7213 341.961 84.21 341.649C83.6987 341.337 83.2957 340.899 83.001 340.336C82.7063 339.773 82.559 339.131 82.559 338.412ZM88.591 338.425C88.591 337.888 88.4827 337.42 88.266 337.021C88.0493 336.622 87.7547 336.319 87.382 336.111C87.018 335.894 86.615 335.786 86.173 335.786C85.731 335.786 85.328 335.89 84.964 336.098C84.6 336.306 84.3097 336.609 84.093 337.008C83.8763 337.407 83.768 337.875 83.768 338.412C83.768 338.958 83.8763 339.435 84.093 339.842C84.3097 340.241 84.6 340.548 84.964 340.765C85.328 340.973 85.731 341.077 86.173 341.077C86.615 341.077 87.018 340.973 87.382 340.765C87.7547 340.548 88.0493 340.241 88.266 339.842C88.4827 339.435 88.591 338.962 88.591 338.425ZM91.3442 338.412C91.3442 337.684 91.4915 337.047 91.7862 336.501C92.0808 335.946 92.4838 335.517 92.9952 335.214C93.5152 334.911 94.0958 334.759 94.7372 334.759C95.2918 334.759 95.8075 334.889 96.2842 335.149C96.7608 335.4 97.1248 335.734 97.3762 336.15V332.38H98.5722V342H97.3762V340.661C97.1422 341.086 96.7955 341.437 96.3362 341.714C95.8768 341.983 95.3395 342.117 94.7242 342.117C94.0915 342.117 93.5152 341.961 92.9952 341.649C92.4838 341.337 92.0808 340.899 91.7862 340.336C91.4915 339.773 91.3442 339.131 91.3442 338.412ZM97.3762 338.425C97.3762 337.888 97.2678 337.42 97.0512 337.021C96.8345 336.622 96.5398 336.319 96.1672 336.111C95.8032 335.894 95.4002 335.786 94.9582 335.786C94.5162 335.786 94.1132 335.89 93.7492 336.098C93.3852 336.306 93.0948 336.609 92.8782 337.008C92.6615 337.407 92.5532 337.875 92.5532 338.412C92.5532 338.958 92.6615 339.435 92.8782 339.842C93.0948 340.241 93.3852 340.548 93.7492 340.765C94.1132 340.973 94.5162 341.077 94.9582 341.077C95.4002 341.077 95.8032 340.973 96.1672 340.765C96.5398 340.548 96.8345 340.241 97.0512 339.842C97.2678 339.435 97.3762 338.962 97.3762 338.425ZM100.129 338.412C100.129 337.684 100.277 337.047 100.571 336.501C100.866 335.946 101.269 335.517 101.78 335.214C102.3 334.911 102.881 334.759 103.522 334.759C104.077 334.759 104.593 334.889 105.069 335.149C105.546 335.4 105.91 335.734 106.161 336.15V332.38H107.357V342H106.161V340.661C105.927 341.086 105.581 341.437 105.121 341.714C104.662 341.983 104.125 342.117 103.509 342.117C102.877 342.117 102.3 341.961 101.78 341.649C101.269 341.337 100.866 340.899 100.571 340.336C100.277 339.773 100.129 339.131 100.129 338.412ZM106.161 338.425C106.161 337.888 106.053 337.42 105.836 337.021C105.62 336.622 105.325 336.319 104.952 336.111C104.588 335.894 104.185 335.786 103.743 335.786C103.301 335.786 102.898 335.89 102.534 336.098C102.17 336.306 101.88 336.609 101.663 337.008C101.447 337.407 101.338 337.875 101.338 338.412C101.338 338.958 101.447 339.435 101.663 339.842C101.88 340.241 102.17 340.548 102.534 340.765C102.898 340.973 103.301 341.077 103.743 341.077C104.185 341.077 104.588 340.973 104.952 340.765C105.325 340.548 105.62 340.241 105.836 339.842C106.053 339.435 106.161 338.962 106.161 338.425ZM110.539 336.033C110.747 335.626 111.042 335.309 111.423 335.084C111.813 334.859 112.286 334.746 112.84 334.746V335.968H112.528C111.202 335.968 110.539 336.687 110.539 338.126V342H109.356V334.876H110.539V336.033ZM120.706 338.165C120.706 338.39 120.693 338.629 120.667 338.88H114.973C115.016 339.582 115.255 340.132 115.688 340.531C116.13 340.921 116.663 341.116 117.287 341.116C117.798 341.116 118.223 340.999 118.561 340.765C118.908 340.522 119.15 340.202 119.289 339.803H120.563C120.372 340.488 119.991 341.047 119.419 341.48C118.847 341.905 118.136 342.117 117.287 342.117C116.611 342.117 116.004 341.965 115.467 341.662C114.938 341.359 114.522 340.93 114.219 340.375C113.916 339.812 113.764 339.162 113.764 338.425C113.764 337.688 113.911 337.043 114.206 336.488C114.501 335.933 114.912 335.509 115.441 335.214C115.978 334.911 116.594 334.759 117.287 334.759C117.963 334.759 118.561 334.906 119.081 335.201C119.601 335.496 120 335.903 120.277 336.423C120.563 336.934 120.706 337.515 120.706 338.165ZM119.484 337.918C119.484 337.467 119.384 337.082 119.185 336.761C118.986 336.432 118.713 336.185 118.366 336.02C118.028 335.847 117.651 335.76 117.235 335.76C116.637 335.76 116.126 335.951 115.701 336.332C115.285 336.713 115.047 337.242 114.986 337.918H119.484ZM124.79 342.117C124.244 342.117 123.754 342.026 123.321 341.844C122.887 341.653 122.545 341.393 122.294 341.064C122.042 340.726 121.904 340.34 121.878 339.907H123.1C123.134 340.262 123.299 340.553 123.594 340.778C123.897 341.003 124.291 341.116 124.777 341.116C125.227 341.116 125.583 341.016 125.843 340.817C126.103 340.618 126.233 340.366 126.233 340.063C126.233 339.751 126.094 339.521 125.817 339.374C125.539 339.218 125.11 339.066 124.53 338.919C124.001 338.78 123.568 338.642 123.23 338.503C122.9 338.356 122.614 338.143 122.372 337.866C122.138 337.58 122.021 337.207 122.021 336.748C122.021 336.384 122.129 336.05 122.346 335.747C122.562 335.444 122.87 335.205 123.269 335.032C123.667 334.85 124.122 334.759 124.634 334.759C125.422 334.759 126.059 334.958 126.545 335.357C127.03 335.756 127.29 336.302 127.325 336.995H126.142C126.116 336.622 125.964 336.323 125.687 336.098C125.418 335.873 125.054 335.76 124.595 335.76C124.17 335.76 123.832 335.851 123.581 336.033C123.329 336.215 123.204 336.453 123.204 336.748C123.204 336.982 123.277 337.177 123.425 337.333C123.581 337.48 123.771 337.602 123.997 337.697C124.231 337.784 124.551 337.883 124.959 337.996C125.47 338.135 125.886 338.273 126.207 338.412C126.527 338.542 126.8 338.741 127.026 339.01C127.26 339.279 127.381 339.63 127.39 340.063C127.39 340.453 127.281 340.804 127.065 341.116C126.848 341.428 126.54 341.675 126.142 341.857C125.752 342.03 125.301 342.117 124.79 342.117ZM131.582 342.117C131.036 342.117 130.546 342.026 130.113 341.844C129.679 341.653 129.337 341.393 129.086 341.064C128.834 340.726 128.696 340.34 128.67 339.907H129.892C129.926 340.262 130.091 340.553 130.386 340.778C130.689 341.003 131.083 341.116 131.569 341.116C132.019 341.116 132.375 341.016 132.635 340.817C132.895 340.618 133.025 340.366 133.025 340.063C133.025 339.751 132.886 339.521 132.609 339.374C132.331 339.218 131.902 339.066 131.322 338.919C130.793 338.78 130.36 338.642 130.022 338.503C129.692 338.356 129.406 338.143 129.164 337.866C128.93 337.58 128.813 337.207 128.813 336.748C128.813 336.384 128.921 336.05 129.138 335.747C129.354 335.444 129.662 335.205 130.061 335.032C130.459 334.85 130.914 334.759 131.426 334.759C132.214 334.759 132.851 334.958 133.337 335.357C133.822 335.756 134.082 336.302 134.117 336.995H132.934C132.908 336.622 132.756 336.323 132.479 336.098C132.21 335.873 131.846 335.76 131.387 335.76C130.962 335.76 130.624 335.851 130.373 336.033C130.121 336.215 129.996 336.453 129.996 336.748C129.996 336.982 130.069 337.177 130.217 337.333C130.373 337.48 130.563 337.602 130.789 337.697C131.023 337.784 131.343 337.883 131.751 337.996C132.262 338.135 132.678 338.273 132.999 338.412C133.319 338.542 133.592 338.741 133.818 339.01C134.052 339.279 134.173 339.63 134.182 340.063C134.182 340.453 134.073 340.804 133.857 341.116C133.64 341.428 133.332 341.675 132.934 341.857C132.544 342.03 132.093 342.117 131.582 342.117ZM136.229 342.078C136.003 342.078 135.813 342 135.657 341.844C135.501 341.688 135.423 341.497 135.423 341.272C135.423 341.047 135.501 340.856 135.657 340.7C135.813 340.544 136.003 340.466 136.229 340.466C136.445 340.466 136.627 340.544 136.775 340.7C136.931 340.856 137.009 341.047 137.009 341.272C137.009 341.497 136.931 341.688 136.775 341.844C136.627 342 136.445 342.078 136.229 342.078ZM147.169 332.939V333.901H143.23V336.956H146.428V337.918H143.23V342H142.047V332.939H147.169ZM151.705 342.117C151.037 342.117 150.431 341.965 149.885 341.662C149.347 341.359 148.923 340.93 148.611 340.375C148.307 339.812 148.156 339.162 148.156 338.425C148.156 337.697 148.312 337.056 148.624 336.501C148.944 335.938 149.378 335.509 149.924 335.214C150.47 334.911 151.081 334.759 151.757 334.759C152.433 334.759 153.044 334.911 153.59 335.214C154.136 335.509 154.565 335.933 154.877 336.488C155.197 337.043 155.358 337.688 155.358 338.425C155.358 339.162 155.193 339.812 154.864 340.375C154.543 340.93 154.105 341.359 153.551 341.662C152.996 341.965 152.381 342.117 151.705 342.117ZM151.705 341.077C152.129 341.077 152.528 340.977 152.901 340.778C153.273 340.579 153.572 340.28 153.798 339.881C154.032 339.482 154.149 338.997 154.149 338.425C154.149 337.853 154.036 337.368 153.811 336.969C153.585 336.57 153.291 336.276 152.927 336.085C152.563 335.886 152.168 335.786 151.744 335.786C151.31 335.786 150.912 335.886 150.548 336.085C150.192 336.276 149.906 336.57 149.69 336.969C149.473 337.368 149.365 337.853 149.365 338.425C149.365 339.006 149.469 339.495 149.677 339.894C149.893 340.293 150.179 340.592 150.535 340.791C150.89 340.982 151.28 341.077 151.705 341.077ZM158.096 332.38V342H156.913V332.38H158.096ZM161.295 332.38V342H160.112V332.38H161.295ZM166.419 342.117C165.751 342.117 165.145 341.965 164.599 341.662C164.061 341.359 163.637 340.93 163.325 340.375C163.021 339.812 162.87 339.162 162.87 338.425C162.87 337.697 163.026 337.056 163.338 336.501C163.658 335.938 164.092 335.509 164.638 335.214C165.184 334.911 165.795 334.759 166.471 334.759C167.147 334.759 167.758 334.911 168.304 335.214C168.85 335.509 169.279 335.933 169.591 336.488C169.911 337.043 170.072 337.688 170.072 338.425C170.072 339.162 169.907 339.812 169.578 340.375C169.257 340.93 168.819 341.359 168.265 341.662C167.71 341.965 167.095 342.117 166.419 342.117ZM166.419 341.077C166.843 341.077 167.242 340.977 167.615 340.778C167.987 340.579 168.286 340.28 168.512 339.881C168.746 339.482 168.863 338.997 168.863 338.425C168.863 337.853 168.75 337.368 168.525 336.969C168.299 336.57 168.005 336.276 167.641 336.085C167.277 335.886 166.882 335.786 166.458 335.786C166.024 335.786 165.626 335.886 165.262 336.085C164.906 336.276 164.62 336.57 164.404 336.969C164.187 337.368 164.079 337.853 164.079 338.425C164.079 339.006 164.183 339.495 164.391 339.894C164.607 340.293 164.893 340.592 165.249 340.791C165.604 340.982 165.994 341.077 166.419 341.077ZM181.117 334.876L178.894 342H177.672L175.956 336.345L174.24 342H173.018L170.782 334.876H171.991L173.629 340.856L175.397 334.876H176.606L178.335 340.869L179.947 334.876H181.117ZM187.2 335.851V340.05C187.2 340.397 187.274 340.644 187.421 340.791C187.568 340.93 187.824 340.999 188.188 340.999H189.059V342H187.993C187.334 342 186.84 341.848 186.511 341.545C186.182 341.242 186.017 340.743 186.017 340.05V335.851H185.094V334.876H186.017V333.082H187.2V334.876H189.059V335.851H187.2ZM194.028 334.746C194.566 334.746 195.051 334.863 195.484 335.097C195.918 335.322 196.256 335.665 196.498 336.124C196.75 336.583 196.875 337.142 196.875 337.801V342H195.705V337.97C195.705 337.259 195.528 336.718 195.172 336.345C194.817 335.964 194.332 335.773 193.716 335.773C193.092 335.773 192.594 335.968 192.221 336.358C191.857 336.748 191.675 337.316 191.675 338.061V342H190.492V332.38H191.675V335.89C191.909 335.526 192.23 335.244 192.637 335.045C193.053 334.846 193.517 334.746 194.028 334.746ZM205.308 338.165C205.308 338.39 205.295 338.629 205.269 338.88H199.575C199.618 339.582 199.856 340.132 200.29 340.531C200.732 340.921 201.265 341.116 201.889 341.116C202.4 341.116 202.825 340.999 203.163 340.765C203.509 340.522 203.752 340.202 203.891 339.803H205.165C204.974 340.488 204.593 341.047 204.021 341.48C203.449 341.905 202.738 342.117 201.889 342.117C201.213 342.117 200.606 341.965 200.069 341.662C199.54 341.359 199.124 340.93 198.821 340.375C198.517 339.812 198.366 339.162 198.366 338.425C198.366 337.688 198.513 337.043 198.808 336.488C199.102 335.933 199.514 335.509 200.043 335.214C200.58 334.911 201.195 334.759 201.889 334.759C202.565 334.759 203.163 334.906 203.683 335.201C204.203 335.496 204.601 335.903 204.879 336.423C205.165 336.934 205.308 337.515 205.308 338.165ZM204.086 337.918C204.086 337.467 203.986 337.082 203.787 336.761C203.587 336.432 203.314 336.185 202.968 336.02C202.63 335.847 202.253 335.76 201.837 335.76C201.239 335.76 200.727 335.951 200.303 336.332C199.887 336.713 199.648 337.242 199.588 337.918H204.086ZM210.946 333.719C210.721 333.719 210.53 333.641 210.374 333.485C210.218 333.329 210.14 333.138 210.14 332.913C210.14 332.688 210.218 332.497 210.374 332.341C210.53 332.185 210.721 332.107 210.946 332.107C211.163 332.107 211.345 332.185 211.492 332.341C211.648 332.497 211.726 332.688 211.726 332.913C211.726 333.138 211.648 333.329 211.492 333.485C211.345 333.641 211.163 333.719 210.946 333.719ZM211.518 334.876V342H210.335V334.876H211.518ZM217.005 334.746C217.872 334.746 218.574 335.01 219.111 335.539C219.649 336.059 219.917 336.813 219.917 337.801V342H218.747V337.97C218.747 337.259 218.57 336.718 218.214 336.345C217.859 335.964 217.374 335.773 216.758 335.773C216.134 335.773 215.636 335.968 215.263 336.358C214.899 336.748 214.717 337.316 214.717 338.061V342H213.534V334.876H214.717V335.89C214.951 335.526 215.268 335.244 215.666 335.045C216.074 334.846 216.52 334.746 217.005 334.746ZM224.372 342.117C223.826 342.117 223.336 342.026 222.903 341.844C222.469 341.653 222.127 341.393 221.876 341.064C221.624 340.726 221.486 340.34 221.46 339.907H222.682C222.716 340.262 222.881 340.553 223.176 340.778C223.479 341.003 223.873 341.116 224.359 341.116C224.809 341.116 225.165 341.016 225.425 340.817C225.685 340.618 225.815 340.366 225.815 340.063C225.815 339.751 225.676 339.521 225.399 339.374C225.121 339.218 224.692 339.066 224.112 338.919C223.583 338.78 223.15 338.642 222.812 338.503C222.482 338.356 222.196 338.143 221.954 337.866C221.72 337.58 221.603 337.207 221.603 336.748C221.603 336.384 221.711 336.05 221.928 335.747C222.144 335.444 222.452 335.205 222.851 335.032C223.249 334.85 223.704 334.759 224.216 334.759C225.004 334.759 225.641 334.958 226.127 335.357C226.612 335.756 226.872 336.302 226.907 336.995H225.724C225.698 336.622 225.546 336.323 225.269 336.098C225 335.873 224.636 335.76 224.177 335.76C223.752 335.76 223.414 335.851 223.163 336.033C222.911 336.215 222.786 336.453 222.786 336.748C222.786 336.982 222.859 337.177 223.007 337.333C223.163 337.48 223.353 337.602 223.579 337.697C223.813 337.784 224.133 337.883 224.541 337.996C225.052 338.135 225.468 338.273 225.789 338.412C226.109 338.542 226.382 338.741 226.608 339.01C226.842 339.279 226.963 339.63 226.972 340.063C226.972 340.453 226.863 340.804 226.647 341.116C226.43 341.428 226.122 341.675 225.724 341.857C225.334 342.03 224.883 342.117 224.372 342.117ZM230.085 335.851V340.05C230.085 340.397 230.158 340.644 230.306 340.791C230.453 340.93 230.709 340.999 231.073 340.999H231.944V342H230.878C230.219 342 229.725 341.848 229.396 341.545C229.066 341.242 228.902 340.743 228.902 340.05V335.851H227.979V334.876H228.902V333.082H230.085V334.876H231.944V335.851H230.085ZM234.56 336.033C234.768 335.626 235.063 335.309 235.444 335.084C235.834 334.859 236.306 334.746 236.861 334.746V335.968H236.549C235.223 335.968 234.56 336.687 234.56 338.126V342H233.377V334.876H234.56V336.033ZM244.545 334.876V342H243.362V340.947C243.136 341.311 242.82 341.597 242.413 341.805C242.014 342.004 241.572 342.104 241.087 342.104C240.532 342.104 240.034 341.991 239.592 341.766C239.15 341.532 238.799 341.185 238.539 340.726C238.287 340.267 238.162 339.708 238.162 339.049V334.876H239.332V338.893C239.332 339.595 239.509 340.137 239.865 340.518C240.22 340.891 240.705 341.077 241.321 341.077C241.953 341.077 242.452 340.882 242.816 340.492C243.18 340.102 243.362 339.534 243.362 338.789V334.876H244.545ZM246.1 338.425C246.1 337.688 246.247 337.047 246.542 336.501C246.837 335.946 247.244 335.517 247.764 335.214C248.293 334.911 248.895 334.759 249.571 334.759C250.446 334.759 251.166 334.971 251.729 335.396C252.301 335.821 252.678 336.41 252.86 337.164H251.586C251.465 336.731 251.226 336.388 250.871 336.137C250.524 335.886 250.091 335.76 249.571 335.76C248.895 335.76 248.349 335.994 247.933 336.462C247.517 336.921 247.309 337.576 247.309 338.425C247.309 339.283 247.517 339.946 247.933 340.414C248.349 340.882 248.895 341.116 249.571 341.116C250.091 341.116 250.524 340.995 250.871 340.752C251.218 340.509 251.456 340.163 251.586 339.712H252.86C252.669 340.44 252.288 341.025 251.716 341.467C251.144 341.9 250.429 342.117 249.571 342.117C248.895 342.117 248.293 341.965 247.764 341.662C247.244 341.359 246.837 340.93 246.542 340.375C246.247 339.82 246.1 339.17 246.1 338.425ZM255.882 335.851V340.05C255.882 340.397 255.955 340.644 256.103 340.791C256.25 340.93 256.506 340.999 256.869 340.999H257.741V342H256.675C256.016 342 255.522 341.848 255.193 341.545C254.863 341.242 254.699 340.743 254.699 340.05V335.851H253.776V334.876H254.699V333.082H255.882V334.876H257.741V335.851H255.882ZM259.785 333.719C259.56 333.719 259.369 333.641 259.213 333.485C259.057 333.329 258.979 333.138 258.979 332.913C258.979 332.688 259.057 332.497 259.213 332.341C259.369 332.185 259.56 332.107 259.785 332.107C260.002 332.107 260.184 332.185 260.331 332.341C260.487 332.497 260.565 332.688 260.565 332.913C260.565 333.138 260.487 333.329 260.331 333.485C260.184 333.641 260.002 333.719 259.785 333.719ZM260.357 334.876V342H259.174V334.876H260.357ZM265.48 342.117C264.813 342.117 264.206 341.965 263.66 341.662C263.123 341.359 262.698 340.93 262.386 340.375C262.083 339.812 261.931 339.162 261.931 338.425C261.931 337.697 262.087 337.056 262.399 336.501C262.72 335.938 263.153 335.509 263.699 335.214C264.245 334.911 264.856 334.759 265.532 334.759C266.208 334.759 266.819 334.911 267.365 335.214C267.911 335.509 268.34 335.933 268.652 336.488C268.973 337.043 269.133 337.688 269.133 338.425C269.133 339.162 268.968 339.812 268.639 340.375C268.318 340.93 267.881 341.359 267.326 341.662C266.771 341.965 266.156 342.117 265.48 342.117ZM265.48 341.077C265.905 341.077 266.303 340.977 266.676 340.778C267.049 340.579 267.348 340.28 267.573 339.881C267.807 339.482 267.924 338.997 267.924 338.425C267.924 337.853 267.811 337.368 267.586 336.969C267.361 336.57 267.066 336.276 266.702 336.085C266.338 335.886 265.944 335.786 265.519 335.786C265.086 335.786 264.687 335.886 264.323 336.085C263.968 336.276 263.682 336.57 263.465 336.969C263.248 337.368 263.14 337.853 263.14 338.425C263.14 339.006 263.244 339.495 263.452 339.894C263.669 340.293 263.955 340.592 264.31 340.791C264.665 340.982 265.055 341.077 265.48 341.077ZM274.16 334.746C275.026 334.746 275.728 335.01 276.266 335.539C276.803 336.059 277.072 336.813 277.072 337.801V342H275.902V337.97C275.902 337.259 275.724 336.718 275.369 336.345C275.013 335.964 274.528 335.773 273.913 335.773C273.289 335.773 272.79 335.968 272.418 336.358C272.054 336.748 271.872 337.316 271.872 338.061V342H270.689V334.876H271.872V335.89C272.106 335.526 272.422 335.244 272.821 335.045C273.228 334.846 273.674 334.746 274.16 334.746ZM281.526 342.117C280.98 342.117 280.49 342.026 280.057 341.844C279.624 341.653 279.281 341.393 279.03 341.064C278.779 340.726 278.64 340.34 278.614 339.907H279.836C279.871 340.262 280.035 340.553 280.33 340.778C280.633 341.003 281.028 341.116 281.513 341.116C281.964 341.116 282.319 341.016 282.579 340.817C282.839 340.618 282.969 340.366 282.969 340.063C282.969 339.751 282.83 339.521 282.553 339.374C282.276 339.218 281.847 339.066 281.266 338.919C280.737 338.78 280.304 338.642 279.966 338.503C279.637 338.356 279.351 338.143 279.108 337.866C278.874 337.58 278.757 337.207 278.757 336.748C278.757 336.384 278.865 336.05 279.082 335.747C279.299 335.444 279.606 335.205 280.005 335.032C280.404 334.85 280.859 334.759 281.37 334.759C282.159 334.759 282.796 334.958 283.281 335.357C283.766 335.756 284.026 336.302 284.061 336.995H282.878C282.852 336.622 282.7 336.323 282.423 336.098C282.154 335.873 281.79 335.76 281.331 335.76C280.906 335.76 280.568 335.851 280.317 336.033C280.066 336.215 279.94 336.453 279.94 336.748C279.94 336.982 280.014 337.177 280.161 337.333C280.317 337.48 280.508 337.602 280.733 337.697C280.967 337.784 281.288 337.883 281.695 337.996C282.206 338.135 282.622 338.273 282.943 338.412C283.264 338.542 283.537 338.741 283.762 339.01C283.996 339.279 284.117 339.63 284.126 340.063C284.126 340.453 284.018 340.804 283.801 341.116C283.584 341.428 283.277 341.675 282.878 341.857C282.488 342.03 282.037 342.117 281.526 342.117ZM289.873 333.719C289.647 333.719 289.457 333.641 289.301 333.485C289.145 333.329 289.067 333.138 289.067 332.913C289.067 332.688 289.145 332.497 289.301 332.341C289.457 332.185 289.647 332.107 289.873 332.107C290.089 332.107 290.271 332.185 290.419 332.341C290.575 332.497 290.653 332.688 290.653 332.913C290.653 333.138 290.575 333.329 290.419 333.485C290.271 333.641 290.089 333.719 289.873 333.719ZM290.445 334.876V342H289.262V334.876H290.445ZM295.932 334.746C296.799 334.746 297.501 335.01 298.038 335.539C298.575 336.059 298.844 336.813 298.844 337.801V342H297.674V337.97C297.674 337.259 297.496 336.718 297.141 336.345C296.786 335.964 296.3 335.773 295.685 335.773C295.061 335.773 294.563 335.968 294.19 336.358C293.826 336.748 293.644 337.316 293.644 338.061V342H292.461V334.876H293.644V335.89C293.878 335.526 294.194 335.244 294.593 335.045C295 334.846 295.447 334.746 295.932 334.746ZM305.685 335.851V340.05C305.685 340.397 305.759 340.644 305.906 340.791C306.054 340.93 306.309 340.999 306.673 340.999H307.544V342H306.478C305.82 342 305.326 341.848 304.996 341.545C304.667 341.242 304.502 340.743 304.502 340.05V335.851H303.579V334.876H304.502V333.082H305.685V334.876H307.544V335.851H305.685ZM312.514 334.746C313.051 334.746 313.536 334.863 313.97 335.097C314.403 335.322 314.741 335.665 314.984 336.124C315.235 336.583 315.361 337.142 315.361 337.801V342H314.191V337.97C314.191 337.259 314.013 336.718 313.658 336.345C313.302 335.964 312.817 335.773 312.202 335.773C311.578 335.773 311.079 335.968 310.707 336.358C310.343 336.748 310.161 337.316 310.161 338.061V342H308.978V332.38H310.161V335.89C310.395 335.526 310.715 335.244 311.123 335.045C311.539 334.846 312.002 334.746 312.514 334.746ZM323.793 338.165C323.793 338.39 323.78 338.629 323.754 338.88H318.06C318.103 339.582 318.342 340.132 318.775 340.531C319.217 340.921 319.75 341.116 320.374 341.116C320.885 341.116 321.31 340.999 321.648 340.765C321.995 340.522 322.237 340.202 322.376 339.803H323.65C323.459 340.488 323.078 341.047 322.506 341.48C321.934 341.905 321.223 342.117 320.374 342.117C319.698 342.117 319.091 341.965 318.554 341.662C318.025 341.359 317.609 340.93 317.306 340.375C317.003 339.812 316.851 339.162 316.851 338.425C316.851 337.688 316.998 337.043 317.293 336.488C317.588 335.933 317.999 335.509 318.528 335.214C319.065 334.911 319.681 334.759 320.374 334.759C321.05 334.759 321.648 334.906 322.168 335.201C322.688 335.496 323.087 335.903 323.364 336.423C323.65 336.934 323.793 337.515 323.793 338.165ZM322.571 337.918C322.571 337.467 322.471 337.082 322.272 336.761C322.073 336.432 321.8 336.185 321.453 336.02C321.115 335.847 320.738 335.76 320.322 335.76C319.724 335.76 319.213 335.951 318.788 336.332C318.372 336.713 318.134 337.242 318.073 337.918H322.571ZM89.501 354.165C89.501 354.39 89.488 354.629 89.462 354.88H83.768C83.8113 355.582 84.0497 356.132 84.483 356.531C84.925 356.921 85.458 357.116 86.082 357.116C86.5933 357.116 87.018 356.999 87.356 356.765C87.7027 356.522 87.9453 356.202 88.084 355.803H89.358C89.1673 356.488 88.786 357.047 88.214 357.48C87.642 357.905 86.9313 358.117 86.082 358.117C85.406 358.117 84.7993 357.965 84.262 357.662C83.7333 357.359 83.3173 356.93 83.014 356.375C82.7107 355.812 82.559 355.162 82.559 354.425C82.559 353.688 82.7063 353.043 83.001 352.488C83.2957 351.933 83.7073 351.509 84.236 351.214C84.7733 350.911 85.3887 350.759 86.082 350.759C86.758 350.759 87.356 350.906 87.876 351.201C88.396 351.496 88.7947 351.903 89.072 352.423C89.358 352.934 89.501 353.515 89.501 354.165ZM88.279 353.918C88.279 353.467 88.1793 353.082 87.98 352.761C87.7807 352.432 87.5077 352.185 87.161 352.02C86.823 351.847 86.446 351.76 86.03 351.76C85.432 351.76 84.9207 351.951 84.496 352.332C84.08 352.713 83.8417 353.242 83.781 353.918H88.279ZM99.6295 350.746C100.184 350.746 100.678 350.863 101.112 351.097C101.545 351.322 101.887 351.665 102.139 352.124C102.39 352.583 102.516 353.142 102.516 353.801V358H101.346V353.97C101.346 353.259 101.168 352.718 100.813 352.345C100.466 351.964 99.9935 351.773 99.3955 351.773C98.7802 351.773 98.2905 351.972 97.9265 352.371C97.5625 352.761 97.3805 353.329 97.3805 354.074V358H96.2105V353.97C96.2105 353.259 96.0329 352.718 95.6775 352.345C95.3309 351.964 94.8585 351.773 94.2605 351.773C93.6452 351.773 93.1555 351.972 92.7915 352.371C92.4275 352.761 92.2455 353.329 92.2455 354.074V358H91.0625V350.876H92.2455V351.903C92.4795 351.53 92.7915 351.244 93.1815 351.045C93.5802 350.846 94.0179 350.746 94.4945 350.746C95.0925 350.746 95.6212 350.88 96.0805 351.149C96.5399 351.418 96.8822 351.812 97.1075 352.332C97.3069 351.829 97.6362 351.439 98.0955 351.162C98.5549 350.885 99.0662 350.746 99.6295 350.746ZM104.014 354.412C104.014 353.684 104.161 353.047 104.456 352.501C104.751 351.946 105.154 351.517 105.665 351.214C106.185 350.911 106.761 350.759 107.394 350.759C108.018 350.759 108.56 350.893 109.019 351.162C109.478 351.431 109.821 351.769 110.046 352.176V350.876H111.242V358H110.046V356.674C109.812 357.09 109.461 357.437 108.993 357.714C108.534 357.983 107.996 358.117 107.381 358.117C106.748 358.117 106.176 357.961 105.665 357.649C105.154 357.337 104.751 356.899 104.456 356.336C104.161 355.773 104.014 355.131 104.014 354.412ZM110.046 354.425C110.046 353.888 109.938 353.42 109.721 353.021C109.504 352.622 109.21 352.319 108.837 352.111C108.473 351.894 108.07 351.786 107.628 351.786C107.186 351.786 106.783 351.89 106.419 352.098C106.055 352.306 105.765 352.609 105.548 353.008C105.331 353.407 105.223 353.875 105.223 354.412C105.223 354.958 105.331 355.435 105.548 355.842C105.765 356.241 106.055 356.548 106.419 356.765C106.783 356.973 107.186 357.077 107.628 357.077C108.07 357.077 108.473 356.973 108.837 356.765C109.21 356.548 109.504 356.241 109.721 355.842C109.938 355.435 110.046 354.962 110.046 354.425ZM113.852 349.719C113.627 349.719 113.436 349.641 113.28 349.485C113.124 349.329 113.046 349.138 113.046 348.913C113.046 348.688 113.124 348.497 113.28 348.341C113.436 348.185 113.627 348.107 113.852 348.107C114.069 348.107 114.251 348.185 114.398 348.341C114.554 348.497 114.632 348.688 114.632 348.913C114.632 349.138 114.554 349.329 114.398 349.485C114.251 349.641 114.069 349.719 113.852 349.719ZM114.424 350.876V358H113.241V350.876H114.424ZM117.623 348.38V358H116.44V348.38H117.623ZM124.548 351.851V356.05C124.548 356.397 124.622 356.644 124.769 356.791C124.917 356.93 125.172 356.999 125.536 356.999H126.407V358H125.341C124.683 358 124.189 357.848 123.859 357.545C123.53 357.242 123.365 356.743 123.365 356.05V351.851H122.442V350.876H123.365V349.082H124.548V350.876H126.407V351.851H124.548ZM130.948 358.117C130.281 358.117 129.674 357.965 129.128 357.662C128.591 357.359 128.166 356.93 127.854 356.375C127.551 355.812 127.399 355.162 127.399 354.425C127.399 353.697 127.555 353.056 127.867 352.501C128.188 351.938 128.621 351.509 129.167 351.214C129.713 350.911 130.324 350.759 131 350.759C131.676 350.759 132.287 350.911 132.833 351.214C133.379 351.509 133.808 351.933 134.12 352.488C134.441 353.043 134.601 353.688 134.601 354.425C134.601 355.162 134.436 355.812 134.107 356.375C133.786 356.93 133.349 357.359 132.794 357.662C132.239 357.965 131.624 358.117 130.948 358.117ZM130.948 357.077C131.373 357.077 131.771 356.977 132.144 356.778C132.517 356.579 132.816 356.28 133.041 355.881C133.275 355.482 133.392 354.997 133.392 354.425C133.392 353.853 133.279 353.368 133.054 352.969C132.829 352.57 132.534 352.276 132.17 352.085C131.806 351.886 131.412 351.786 130.987 351.786C130.554 351.786 130.155 351.886 129.791 352.085C129.436 352.276 129.15 352.57 128.933 352.969C128.716 353.368 128.608 353.853 128.608 354.425C128.608 355.006 128.712 355.495 128.92 355.894C129.137 356.293 129.423 356.592 129.778 356.791C130.133 356.982 130.523 357.077 130.948 357.077ZM140.805 352.033C141.013 351.626 141.308 351.309 141.689 351.084C142.079 350.859 142.551 350.746 143.106 350.746V351.968H142.794C141.468 351.968 140.805 352.687 140.805 354.126V358H139.622V350.876H140.805V352.033ZM150.972 354.165C150.972 354.39 150.959 354.629 150.933 354.88H145.239C145.282 355.582 145.52 356.132 145.954 356.531C146.396 356.921 146.929 357.116 147.553 357.116C148.064 357.116 148.489 356.999 148.827 356.765C149.173 356.522 149.416 356.202 149.555 355.803H150.829C150.638 356.488 150.257 357.047 149.685 357.48C149.113 357.905 148.402 358.117 147.553 358.117C146.877 358.117 146.27 357.965 145.733 357.662C145.204 357.359 144.788 356.93 144.485 356.375C144.181 355.812 144.03 355.162 144.03 354.425C144.03 353.688 144.177 353.043 144.472 352.488C144.766 351.933 145.178 351.509 145.707 351.214C146.244 350.911 146.859 350.759 147.553 350.759C148.229 350.759 148.827 350.906 149.347 351.201C149.867 351.496 150.265 351.903 150.543 352.423C150.829 352.934 150.972 353.515 150.972 354.165ZM149.75 353.918C149.75 353.467 149.65 353.082 149.451 352.761C149.251 352.432 148.978 352.185 148.632 352.02C148.294 351.847 147.917 351.76 147.501 351.76C146.903 351.76 146.391 351.951 145.967 352.332C145.551 352.713 145.312 353.242 145.252 353.918H149.75ZM155.055 358.117C154.509 358.117 154.02 358.026 153.586 357.844C153.153 357.653 152.811 357.393 152.559 357.064C152.308 356.726 152.169 356.34 152.143 355.907H153.365C153.4 356.262 153.565 356.553 153.859 356.778C154.163 357.003 154.557 357.116 155.042 357.116C155.493 357.116 155.848 357.016 156.108 356.817C156.368 356.618 156.498 356.366 156.498 356.063C156.498 355.751 156.36 355.521 156.082 355.374C155.805 355.218 155.376 355.066 154.795 354.919C154.267 354.78 153.833 354.642 153.495 354.503C153.166 354.356 152.88 354.143 152.637 353.866C152.403 353.58 152.286 353.207 152.286 352.748C152.286 352.384 152.395 352.05 152.611 351.747C152.828 351.444 153.136 351.205 153.534 351.032C153.933 350.85 154.388 350.759 154.899 350.759C155.688 350.759 156.325 350.958 156.81 351.357C157.296 351.756 157.556 352.302 157.59 352.995H156.407C156.381 352.622 156.23 352.323 155.952 352.098C155.684 351.873 155.32 351.76 154.86 351.76C154.436 351.76 154.098 351.851 153.846 352.033C153.595 352.215 153.469 352.453 153.469 352.748C153.469 352.982 153.543 353.177 153.69 353.333C153.846 353.48 154.037 353.602 154.262 353.697C154.496 353.784 154.817 353.883 155.224 353.996C155.736 354.135 156.152 354.273 156.472 354.412C156.793 354.542 157.066 354.741 157.291 355.01C157.525 355.279 157.647 355.63 157.655 356.063C157.655 356.453 157.547 356.804 157.33 357.116C157.114 357.428 156.806 357.675 156.407 357.857C156.017 358.03 155.567 358.117 155.055 358.117ZM165.825 354.165C165.825 354.39 165.812 354.629 165.786 354.88H160.092C160.136 355.582 160.374 356.132 160.807 356.531C161.249 356.921 161.782 357.116 162.406 357.116C162.918 357.116 163.342 356.999 163.68 356.765C164.027 356.522 164.27 356.202 164.408 355.803H165.682C165.492 356.488 165.11 357.047 164.538 357.48C163.966 357.905 163.256 358.117 162.406 358.117C161.73 358.117 161.124 357.965 160.586 357.662C160.058 357.359 159.642 356.93 159.338 356.375C159.035 355.812 158.883 355.162 158.883 354.425C158.883 353.688 159.031 353.043 159.325 352.488C159.62 351.933 160.032 351.509 160.56 351.214C161.098 350.911 161.713 350.759 162.406 350.759C163.082 350.759 163.68 350.906 164.2 351.201C164.72 351.496 165.119 351.903 165.396 352.423C165.682 352.934 165.825 353.515 165.825 354.165ZM164.603 353.918C164.603 353.467 164.504 353.082 164.304 352.761C164.105 352.432 163.832 352.185 163.485 352.02C163.147 351.847 162.77 351.76 162.354 351.76C161.756 351.76 161.245 351.951 160.82 352.332C160.404 352.713 160.166 353.242 160.105 353.918H164.603ZM168.83 351.851V356.05C168.83 356.397 168.903 356.644 169.051 356.791C169.198 356.93 169.454 356.999 169.818 356.999H170.689V358H169.623C168.964 358 168.47 357.848 168.141 357.545C167.811 357.242 167.647 356.743 167.647 356.05V351.851H166.724V350.876H167.647V349.082H168.83V350.876H170.689V351.851H168.83ZM181.724 350.876L177.434 361.354H176.212L177.616 357.922L174.743 350.876H176.056L178.292 356.648L180.502 350.876H181.724ZM186.02 358.117C185.353 358.117 184.746 357.965 184.2 357.662C183.663 357.359 183.238 356.93 182.926 356.375C182.623 355.812 182.471 355.162 182.471 354.425C182.471 353.697 182.627 353.056 182.939 352.501C183.26 351.938 183.693 351.509 184.239 351.214C184.785 350.911 185.396 350.759 186.072 350.759C186.748 350.759 187.359 350.911 187.905 351.214C188.451 351.509 188.88 351.933 189.192 352.488C189.513 353.043 189.673 353.688 189.673 354.425C189.673 355.162 189.508 355.812 189.179 356.375C188.858 356.93 188.421 357.359 187.866 357.662C187.311 357.965 186.696 358.117 186.02 358.117ZM186.02 357.077C186.445 357.077 186.843 356.977 187.216 356.778C187.589 356.579 187.888 356.28 188.113 355.881C188.347 355.482 188.464 354.997 188.464 354.425C188.464 353.853 188.351 353.368 188.126 352.969C187.901 352.57 187.606 352.276 187.242 352.085C186.878 351.886 186.484 351.786 186.059 351.786C185.626 351.786 185.227 351.886 184.863 352.085C184.508 352.276 184.222 352.57 184.005 352.969C183.788 353.368 183.68 353.853 183.68 354.425C183.68 355.006 183.784 355.495 183.992 355.894C184.209 356.293 184.495 356.592 184.85 356.791C185.205 356.982 185.595 357.077 186.02 357.077ZM197.547 350.876V358H196.364V356.947C196.138 357.311 195.822 357.597 195.415 357.805C195.016 358.004 194.574 358.104 194.089 358.104C193.534 358.104 193.036 357.991 192.594 357.766C192.152 357.532 191.801 357.185 191.541 356.726C191.289 356.267 191.164 355.708 191.164 355.049V350.876H192.334V354.893C192.334 355.595 192.511 356.137 192.867 356.518C193.222 356.891 193.707 357.077 194.323 357.077C194.955 357.077 195.454 356.882 195.818 356.492C196.182 356.102 196.364 355.534 196.364 354.789V350.876H197.547ZM200.727 352.033C200.935 351.626 201.23 351.309 201.611 351.084C202.001 350.859 202.473 350.746 203.028 350.746V351.968H202.716C201.39 351.968 200.727 352.687 200.727 354.126V358H199.544V350.876H200.727V352.033ZM209.042 352.189C209.276 351.782 209.623 351.444 210.082 351.175C210.55 350.898 211.092 350.759 211.707 350.759C212.34 350.759 212.912 350.911 213.423 351.214C213.943 351.517 214.351 351.946 214.645 352.501C214.94 353.047 215.087 353.684 215.087 354.412C215.087 355.131 214.94 355.773 214.645 356.336C214.351 356.899 213.943 357.337 213.423 357.649C212.912 357.961 212.34 358.117 211.707 358.117C211.101 358.117 210.563 357.983 210.095 357.714C209.636 357.437 209.285 357.094 209.042 356.687V361.38H207.859V350.876H209.042V352.189ZM213.878 354.412C213.878 353.875 213.77 353.407 213.553 353.008C213.337 352.609 213.042 352.306 212.669 352.098C212.305 351.89 211.902 351.786 211.46 351.786C211.027 351.786 210.624 351.894 210.251 352.111C209.887 352.319 209.593 352.627 209.367 353.034C209.151 353.433 209.042 353.896 209.042 354.425C209.042 354.962 209.151 355.435 209.367 355.842C209.593 356.241 209.887 356.548 210.251 356.765C210.624 356.973 211.027 357.077 211.46 357.077C211.902 357.077 212.305 356.973 212.669 356.765C213.042 356.548 213.337 356.241 213.553 355.842C213.77 355.435 213.878 354.958 213.878 354.412ZM216.203 354.412C216.203 353.684 216.35 353.047 216.645 352.501C216.939 351.946 217.342 351.517 217.854 351.214C218.374 350.911 218.95 350.759 219.583 350.759C220.207 350.759 220.748 350.893 221.208 351.162C221.667 351.431 222.009 351.769 222.235 352.176V350.876H223.431V358H222.235V356.674C222.001 357.09 221.65 357.437 221.182 357.714C220.722 357.983 220.185 358.117 219.57 358.117C218.937 358.117 218.365 357.961 217.854 357.649C217.342 357.337 216.939 356.899 216.645 356.336C216.35 355.773 216.203 355.131 216.203 354.412ZM222.235 354.425C222.235 353.888 222.126 353.42 221.91 353.021C221.693 352.622 221.398 352.319 221.026 352.111C220.662 351.894 220.259 351.786 219.817 351.786C219.375 351.786 218.972 351.89 218.608 352.098C218.244 352.306 217.953 352.609 217.737 353.008C217.52 353.407 217.412 353.875 217.412 354.412C217.412 354.958 217.52 355.435 217.737 355.842C217.953 356.241 218.244 356.548 218.608 356.765C218.972 356.973 219.375 357.077 219.817 357.077C220.259 357.077 220.662 356.973 221.026 356.765C221.398 356.548 221.693 356.241 221.91 355.842C222.126 355.435 222.235 354.962 222.235 354.425ZM227.952 358.117C227.406 358.117 226.916 358.026 226.483 357.844C226.049 357.653 225.707 357.393 225.456 357.064C225.204 356.726 225.066 356.34 225.04 355.907H226.262C226.296 356.262 226.461 356.553 226.756 356.778C227.059 357.003 227.453 357.116 227.939 357.116C228.389 357.116 228.745 357.016 229.005 356.817C229.265 356.618 229.395 356.366 229.395 356.063C229.395 355.751 229.256 355.521 228.979 355.374C228.701 355.218 228.272 355.066 227.692 354.919C227.163 354.78 226.73 354.642 226.392 354.503C226.062 354.356 225.776 354.143 225.534 353.866C225.3 353.58 225.183 353.207 225.183 352.748C225.183 352.384 225.291 352.05 225.508 351.747C225.724 351.444 226.032 351.205 226.431 351.032C226.829 350.85 227.284 350.759 227.796 350.759C228.584 350.759 229.221 350.958 229.707 351.357C230.192 351.756 230.452 352.302 230.487 352.995H229.304C229.278 352.622 229.126 352.323 228.849 352.098C228.58 351.873 228.216 351.76 227.757 351.76C227.332 351.76 226.994 351.851 226.743 352.033C226.491 352.215 226.366 352.453 226.366 352.748C226.366 352.982 226.439 353.177 226.587 353.333C226.743 353.48 226.933 353.602 227.159 353.697C227.393 353.784 227.713 353.883 228.121 353.996C228.632 354.135 229.048 354.273 229.369 354.412C229.689 354.542 229.962 354.741 230.188 355.01C230.422 355.279 230.543 355.63 230.552 356.063C230.552 356.453 230.443 356.804 230.227 357.116C230.01 357.428 229.702 357.675 229.304 357.857C228.914 358.03 228.463 358.117 227.952 358.117ZM234.744 358.117C234.198 358.117 233.708 358.026 233.275 357.844C232.841 357.653 232.499 357.393 232.248 357.064C231.996 356.726 231.858 356.34 231.832 355.907H233.054C233.088 356.262 233.253 356.553 233.548 356.778C233.851 357.003 234.245 357.116 234.731 357.116C235.181 357.116 235.537 357.016 235.797 356.817C236.057 356.618 236.187 356.366 236.187 356.063C236.187 355.751 236.048 355.521 235.771 355.374C235.493 355.218 235.064 355.066 234.484 354.919C233.955 354.78 233.522 354.642 233.184 354.503C232.854 354.356 232.568 354.143 232.326 353.866C232.092 353.58 231.975 353.207 231.975 352.748C231.975 352.384 232.083 352.05 232.3 351.747C232.516 351.444 232.824 351.205 233.223 351.032C233.621 350.85 234.076 350.759 234.588 350.759C235.376 350.759 236.013 350.958 236.499 351.357C236.984 351.756 237.244 352.302 237.279 352.995H236.096C236.07 352.622 235.918 352.323 235.641 352.098C235.372 351.873 235.008 351.76 234.549 351.76C234.124 351.76 233.786 351.851 233.535 352.033C233.283 352.215 233.158 352.453 233.158 352.748C233.158 352.982 233.231 353.177 233.379 353.333C233.535 353.48 233.725 353.602 233.951 353.697C234.185 353.784 234.505 353.883 234.913 353.996C235.424 354.135 235.84 354.273 236.161 354.412C236.481 354.542 236.754 354.741 236.98 355.01C237.214 355.279 237.335 355.63 237.344 356.063C237.344 356.453 237.235 356.804 237.019 357.116C236.802 357.428 236.494 357.675 236.096 357.857C235.706 358.03 235.255 358.117 234.744 358.117ZM248.504 350.876L246.281 358H245.059L243.343 352.345L241.627 358H240.405L238.169 350.876H239.378L241.016 356.856L242.784 350.876H243.993L245.722 356.869L247.334 350.876H248.504ZM252.785 358.117C252.117 358.117 251.511 357.965 250.965 357.662C250.427 357.359 250.003 356.93 249.691 356.375C249.387 355.812 249.236 355.162 249.236 354.425C249.236 353.697 249.392 353.056 249.704 352.501C250.024 351.938 250.458 351.509 251.004 351.214C251.55 350.911 252.161 350.759 252.837 350.759C253.513 350.759 254.124 350.911 254.67 351.214C255.216 351.509 255.645 351.933 255.957 352.488C256.277 353.043 256.438 353.688 256.438 354.425C256.438 355.162 256.273 355.812 255.944 356.375C255.623 356.93 255.185 357.359 254.631 357.662C254.076 357.965 253.461 358.117 252.785 358.117ZM252.785 357.077C253.209 357.077 253.608 356.977 253.981 356.778C254.353 356.579 254.652 356.28 254.878 355.881C255.112 355.482 255.229 354.997 255.229 354.425C255.229 353.853 255.116 353.368 254.891 352.969C254.665 352.57 254.371 352.276 254.007 352.085C253.643 351.886 253.248 351.786 252.824 351.786C252.39 351.786 251.992 351.886 251.628 352.085C251.272 352.276 250.986 352.57 250.77 352.969C250.553 353.368 250.445 353.853 250.445 354.425C250.445 355.006 250.549 355.495 250.757 355.894C250.973 356.293 251.259 356.592 251.615 356.791C251.97 356.982 252.36 357.077 252.785 357.077ZM259.176 352.033C259.384 351.626 259.679 351.309 260.06 351.084C260.45 350.859 260.923 350.746 261.477 350.746V351.968H261.165C259.839 351.968 259.176 352.687 259.176 354.126V358H257.993V350.876H259.176V352.033ZM262.401 354.412C262.401 353.684 262.548 353.047 262.843 352.501C263.137 351.946 263.54 351.517 264.052 351.214C264.572 350.911 265.152 350.759 265.794 350.759C266.348 350.759 266.864 350.889 267.341 351.149C267.817 351.4 268.181 351.734 268.433 352.15V348.38H269.629V358H268.433V356.661C268.199 357.086 267.852 357.437 267.393 357.714C266.933 357.983 266.396 358.117 265.781 358.117C265.148 358.117 264.572 357.961 264.052 357.649C263.54 357.337 263.137 356.899 262.843 356.336C262.548 355.773 262.401 355.131 262.401 354.412ZM268.433 354.425C268.433 353.888 268.324 353.42 268.108 353.021C267.891 352.622 267.596 352.319 267.224 352.111C266.86 351.894 266.457 351.786 266.015 351.786C265.573 351.786 265.17 351.89 264.806 352.098C264.442 352.306 264.151 352.609 263.935 353.008C263.718 353.407 263.61 353.875 263.61 354.412C263.61 354.958 263.718 355.435 263.935 355.842C264.151 356.241 264.442 356.548 264.806 356.765C265.17 356.973 265.573 357.077 266.015 357.077C266.457 357.077 266.86 356.973 267.224 356.765C267.596 356.548 267.891 356.241 268.108 355.842C268.324 355.435 268.433 354.962 268.433 354.425ZM272.005 358.078C271.78 358.078 271.589 358 271.433 357.844C271.277 357.688 271.199 357.497 271.199 357.272C271.199 357.047 271.277 356.856 271.433 356.7C271.589 356.544 271.78 356.466 272.005 356.466C272.222 356.466 272.404 356.544 272.551 356.7C272.707 356.856 272.785 357.047 272.785 357.272C272.785 357.497 272.707 357.688 272.551 357.844C272.404 358 272.222 358.078 272.005 358.078Z" fill="#6C6F74"/>
<path d="M60 342C61.0943 342 62.1246 341.79 63.0911 341.371C64.0575 340.956 64.9064 340.381 65.6376 339.644C66.3739 338.907 66.9517 338.058 67.371 337.096C67.7903 336.13 68 335.096 68 333.996C68 332.901 67.7903 331.873 67.371 330.911C66.9517 329.944 66.3739 329.093 65.6376 328.356C64.9064 327.619 64.055 327.044 63.0834 326.629C62.117 326.21 61.0866 326 59.9923 326C58.8981 326 57.8677 326.21 56.9012 326.629C55.9348 327.044 55.0834 327.619 54.3471 328.356C53.6158 329.093 53.0406 329.944 52.6213 330.911C52.2071 331.873 52 332.901 52 333.996C52 335.096 52.2071 336.13 52.6213 337.096C53.0406 338.058 53.6184 338.907 54.3547 339.644C55.0911 340.381 55.9425 340.956 56.9089 341.371C57.8754 341.79 58.9057 342 60 342ZM59.1486 337.802C58.9901 337.802 58.8469 337.769 58.7191 337.703C58.5912 337.631 58.4711 337.524 58.3586 337.38L56.5101 335.155C56.4385 335.058 56.3822 334.963 56.3413 334.871C56.3055 334.774 56.2876 334.674 56.2876 334.572C56.2876 334.357 56.3618 334.175 56.5101 334.027C56.6584 333.873 56.8399 333.797 57.0546 333.797C57.1825 333.797 57.2975 333.825 57.3998 333.881C57.5021 333.932 57.6044 334.022 57.7066 334.15L59.1256 335.93L62.2167 330.988C62.4008 330.696 62.6283 330.551 62.8993 330.551C63.1039 330.551 63.2854 330.617 63.4439 330.75C63.6075 330.883 63.6894 331.057 63.6894 331.272C63.6894 331.369 63.6689 331.466 63.628 331.564C63.5922 331.661 63.5462 331.753 63.4899 331.84L59.908 337.38C59.8159 337.513 59.7034 337.618 59.5705 337.695C59.4426 337.767 59.302 337.802 59.1486 337.802Z" fill="#29843D"/>
<rect x="44.5" y="240.5" width="292" height="48" rx="9.5" fill="white" stroke="black"/>
<path fill-rule="evenodd" clip-rule="evenodd" d="M44 40C44 39.7348 43.9022 39.4805 43.728 39.293C43.5539 39.1055 43.3177 39.0001 43.0715 39.0001H21.1716L27.0157 32.709C27.102 32.6161 27.1705 32.5057 27.2172 32.3842C27.2639 32.2628 27.288 32.1326 27.288 32.0011C27.288 31.8697 27.2639 31.7395 27.2172 31.618C27.1705 31.4965 27.102 31.3862 27.0157 31.2932C26.9293 31.2003 26.8268 31.1265 26.714 31.0762C26.6012 31.0259 26.4804 31 26.3583 31C26.2362 31 26.1153 31.0259 26.0025 31.0762C25.8897 31.1265 25.7872 31.2003 25.7009 31.2932L18.2728 39.2921C18.1863 39.385 18.1177 39.4953 18.0709 39.6168C18.0241 39.7383 18 39.8685 18 40C18 40.1315 18.0241 40.2617 18.0709 40.3832C18.1177 40.5047 18.1863 40.615 18.2728 40.7079L25.7009 48.7068C25.7872 48.7997 25.8897 48.8735 26.0025 48.9238C26.1153 48.9741 26.2362 49 26.3583 49C26.4804 49 26.6012 48.9741 26.714 48.9238C26.8268 48.8735 26.9293 48.7997 27.0157 48.7068C27.102 48.6138 27.1705 48.5035 27.2172 48.382C27.2639 48.2605 27.288 48.1303 27.288 47.9989C27.288 47.8674 27.2639 47.7372 27.2172 47.6158C27.1705 47.4943 27.102 47.3839 27.0157 47.291L21.1716 40.9999H43.0715C43.3177 40.9999 43.5539 40.8945 43.728 40.707C43.9022 40.5195 44 40.2652 44 40Z" fill="black"/>
</svg>
